<svg width="31" height="29" viewBox="0 0 31 29" fill="none" xmlns="http://www.w3.org/2000/svg">
<path d="M19.2906 2.41009e-07C18.8719 3.01261e-07 18.5325 0.339434 18.5325 0.758147C18.5325 1.17686 18.8719 1.51629 19.2906 1.51629V2.41009e-07ZM25.1873 0.758147V1.51629V0.758147ZM25.1873 27.7145V28.4726V27.7145ZM19.2906 26.9563C18.8719 26.9563 18.5325 27.2958 18.5325 27.7145C18.5325 28.1332 18.8719 28.4726 19.2906 28.4726V26.9563ZM0.758147 14.2363L0.222056 13.7002C0.0798761 13.8424 6.02521e-08 14.0352 0 14.2363C-6.02521e-08 14.4374 0.0798759 14.6302 0.222056 14.7724L0.758147 14.2363ZM20.9754 14.9945C21.3941 14.9945 21.7336 14.655 21.7336 14.2363C21.7336 13.8176 21.3941 13.4782 20.9754 13.4782V14.9945ZM8.03332 8.03332C8.3294 7.73725 8.3294 7.25722 8.03332 6.96114C7.73725 6.66507 7.25722 6.66507 6.96114 6.96114L8.03332 8.03332ZM6.96114 21.5115C7.25722 21.8076 7.73725 21.8076 8.03332 21.5115C8.3294 21.2154 8.3294 20.7354 8.03332 20.4393L6.96114 21.5115ZM19.2906 1.51629L25.1873 1.51629V0L19.2906 2.41009e-07V1.51629ZM25.1873 26.9563H19.2906V28.4726H25.1873V26.9563ZM25.1873 1.51629C26.2897 1.51629 27.0468 1.8679 27.6063 2.44443C28.1896 3.04546 28.616 3.95164 28.91 5.15062C29.5026 7.56758 29.4835 10.8275 29.4835 14.2363H30.9998C30.9998 10.906 31.0293 7.42689 30.3827 4.78953C30.057 3.46136 29.5418 2.26157 28.6945 1.38843C27.8233 0.490781 26.6607 -6.0252e-08 25.1873 0V1.51629ZM29.4835 14.2363C29.4835 17.6451 29.5026 20.9051 28.91 23.322C28.616 24.521 28.1896 25.4272 27.6063 26.0282C27.0468 26.6047 26.2897 26.9563 25.1873 26.9563V28.4726C26.6607 28.4726 27.8233 27.9819 28.6945 27.0842C29.5418 26.2111 30.057 25.0113 30.3827 23.6831C31.0293 21.0457 30.9998 17.5666 30.9998 14.2363H29.4835ZM0.758147 14.9945L20.9754 14.9945V13.4782L0.758147 13.4782L0.758147 14.9945ZM6.96114 6.96114L0.222056 13.7002L1.29424 14.7724L8.03332 8.03332L6.96114 6.96114ZM0.222056 14.7724L6.96114 21.5115L8.03332 20.4393L1.29424 13.7002L0.222056 14.7724Z" fill="#EBEBF5"/>
</svg>
