<svg width="103" height="127" viewBox="0 0 103 127" fill="none" xmlns="http://www.w3.org/2000/svg">
<path d="M88.7016 81.7664C88.7016 81.7664 89.0369 75.0618 90.3778 72.1788C95.875 67.0774 99.4622 58.3426 100.569 54.6128C103.049 50.5901 103.049 41.6059 102.982 38.3877C102.915 37.6502 102.915 37.2479 102.915 37.2479C102.58 31.3479 85.6846 -8.67846 54.9776 1.71364C29.0979 10.4966 26.9524 28.9343 25.2763 45.5616C25.0751 47.2378 24.941 48.9139 24.7399 50.523C24.5388 51.931 24.4047 53.2719 24.2035 54.6128C21.5217 73.0504 0 87.6664 0 87.6664L14.4819 120.787C14.4819 120.787 55.3799 126.687 56.3855 126.821C57.3912 126.955 56.1844 118.172 56.1844 118.172C56.1844 118.172 52.2958 115.423 51.4242 113.546C51.223 113.077 51.2901 112.272 51.4912 111.334C52.0946 108.652 53.9048 104.763 54.3071 103.959C54.3742 103.892 54.3742 103.824 54.3742 103.824C54.3742 103.824 61.0117 107.378 65.906 107.713C70.8004 108.048 72.9459 99.4665 72.9459 99.4665C81.997 96.3153 78.3095 92.6278 80.455 91.2869C82.5334 89.946 88.7016 81.7664 88.7016 81.7664Z" fill="#F7AF8B"/>
</svg>
