<svg width="20" height="20" viewBox="0 0 20 20" fill="none" xmlns="http://www.w3.org/2000/svg">
<path d="M0.769231 9.23077C0.344396 9.23077 0 9.57517 0 10C0 10.4248 0.344396 10.7692 0.769231 10.7692V9.23077ZM2.82051 10.7692C3.24535 10.7692 3.58974 10.4248 3.58974 10C3.58974 9.57517 3.24535 9.23077 2.82051 9.23077V10.7692ZM2.27665 16.6356C1.97624 16.936 1.97624 17.423 2.27665 17.7234C2.57705 18.0238 3.0641 18.0238 3.3645 17.7234L2.27665 16.6356ZM5.41579 15.6721C5.71619 15.3717 5.71619 14.8847 5.41579 14.5843C5.11538 14.2839 4.62833 14.2839 4.32793 14.5843L5.41579 15.6721ZM10.7692 17.1795C10.7692 16.7547 10.4248 16.4103 10 16.4103C9.57517 16.4103 9.23077 16.7547 9.23077 17.1795H10.7692ZM9.23077 19.2308C9.23077 19.6556 9.57517 20 10 20C10.4248 20 10.7692 19.6556 10.7692 19.2308H9.23077ZM15.6721 14.5843C15.3717 14.2839 14.8847 14.2839 14.5843 14.5843C14.2839 14.8847 14.2839 15.3717 14.5843 15.6721L15.6721 14.5843ZM16.6356 17.7234C16.936 18.0238 17.423 18.0238 17.7234 17.7234C18.0238 17.423 18.0238 16.936 17.7234 16.6356L16.6356 17.7234ZM3.36444 2.27658C3.06404 1.97618 2.57699 1.97618 2.27658 2.27658C1.97618 2.57699 1.97618 3.06404 2.27658 3.36444L3.36444 2.27658ZM4.32787 5.41572C4.62827 5.71613 5.11532 5.71613 5.41572 5.41572C5.71613 5.11532 5.71613 4.62827 5.41572 4.32787L4.32787 5.41572ZM17.1795 9.23077C16.7547 9.23077 16.4103 9.57517 16.4103 10C16.4103 10.4248 16.7547 10.7692 17.1795 10.7692V9.23077ZM19.2308 10.7692C19.6556 10.7692 20 10.4248 20 10C20 9.57517 19.6556 9.23077 19.2308 9.23077V10.7692ZM14.5842 4.32787C14.2838 4.62827 14.2838 5.11532 14.5842 5.41572C14.8846 5.71613 15.3717 5.71613 15.6721 5.41572L14.5842 4.32787ZM17.7234 3.36444C18.0238 3.06404 18.0238 2.57699 17.7234 2.27658C17.4229 1.97618 16.9359 1.97618 16.6355 2.27658L17.7234 3.36444ZM10.7692 0.769231C10.7692 0.344396 10.4248 0 10 0C9.57517 0 9.23077 0.344396 9.23077 0.769231H10.7692ZM9.23077 2.82051C9.23077 3.24535 9.57517 3.58974 10 3.58974C10.4248 3.58974 10.7692 3.24535 10.7692 2.82051H9.23077ZM12.3077 10C12.3077 11.2745 11.2745 12.3077 10 12.3077V13.8462C12.1242 13.8462 13.8462 12.1242 13.8462 10H12.3077ZM10 12.3077C8.7255 12.3077 7.69231 11.2745 7.69231 10H6.15385C6.15385 12.1242 7.87583 13.8462 10 13.8462V12.3077ZM7.69231 10C7.69231 8.7255 8.7255 7.69231 10 7.69231V6.15385C7.87583 6.15385 6.15385 7.87583 6.15385 10H7.69231ZM10 7.69231C11.2745 7.69231 12.3077 8.7255 12.3077 10H13.8462C13.8462 7.87583 12.1242 6.15385 10 6.15385V7.69231ZM0.769231 10.7692H2.82051V9.23077H0.769231V10.7692ZM3.3645 17.7234L5.41579 15.6721L4.32793 14.5843L2.27665 16.6356L3.3645 17.7234ZM9.23077 17.1795V19.2308H10.7692V17.1795H9.23077ZM14.5843 15.6721L16.6356 17.7234L17.7234 16.6356L15.6721 14.5843L14.5843 15.6721ZM2.27658 3.36444L4.32787 5.41572L5.41572 4.32787L3.36444 2.27658L2.27658 3.36444ZM17.1795 10.7692H19.2308V9.23077H17.1795V10.7692ZM15.6721 5.41572L17.7234 3.36444L16.6355 2.27658L14.5842 4.32787L15.6721 5.41572ZM9.23077 0.769231V2.82051H10.7692V0.769231H9.23077Z" fill="#EBEBF5" fill-opacity="0.6"/>
</svg>
