<svg width="19" height="25" viewBox="0 0 19 25" fill="none" xmlns="http://www.w3.org/2000/svg">
<path d="M9.22213 12.2267C11.9183 12.2267 14.1043 9.48966 14.1043 6.11337C14.1043 2.737 13.3866 0 9.22213 0C5.05766 0 4.33985 2.737 4.33985 6.11337C4.33985 9.48966 6.52577 12.2267 9.22213 12.2267Z" fill="white"/>
<path d="M0.00100584 21.561C0.000134757 21.3551 -0.000736325 21.503 0.00100584 21.561V21.561Z" fill="white"/>
<path d="M18.4434 21.7217C18.4461 21.6654 18.4443 21.3308 18.4434 21.7217V21.7217Z" fill="white"/>
<path d="M18.433 21.3141C18.3425 15.4325 17.5974 13.7566 11.8956 12.6957C11.8956 12.6957 11.093 13.7501 9.22227 13.7501C7.35153 13.7501 6.54878 12.6957 6.54878 12.6957C0.909201 13.745 0.11878 15.3961 0.0148504 21.123C0.00632811 21.5906 0.0023788 21.6152 0.000854493 21.5609C0.00120093 21.6626 0.00161649 21.8508 0.00161649 22.1788C0.00161649 22.1788 1.35908 25 9.22227 25C17.0853 25 18.4429 22.1788 18.4429 22.1788C18.4429 21.9681 18.4431 21.8215 18.4433 21.7218C18.4418 21.7553 18.4387 21.6903 18.433 21.3141Z" fill="white"/>
</svg>
