<svg width="20" height="25" viewBox="0 0 20 25" fill="none" xmlns="http://www.w3.org/2000/svg">
<path d="M9.65889 12.2267C12.4828 12.2267 14.7722 9.48966 14.7722 6.11337C14.7722 2.737 14.0206 0 9.65889 0C5.29722 0 4.54542 2.737 4.54542 6.11337C4.54542 9.48966 6.83485 12.2267 9.65889 12.2267Z" fill="#D2D2D2"/>
<path d="M0.00100584 21.561C0.000134757 21.3551 -0.000736325 21.503 0.00100584 21.561V21.561Z" fill="#D2D2D2"/>
<path d="M19.3168 21.7217C19.3196 21.6654 19.3177 21.3308 19.3168 21.7217V21.7217Z" fill="#D2D2D2"/>
<path d="M19.3058 21.3141C19.2111 15.4325 18.4307 13.7566 12.4589 12.6957C12.4589 12.6957 11.6183 13.7501 9.65894 13.7501C7.69962 13.7501 6.85885 12.6957 6.85885 12.6957C0.952214 13.745 0.124364 15.3961 0.0155131 21.123C0.0065873 21.5906 0.00245098 21.6152 0.000854493 21.5609C0.00121733 21.6626 0.00165257 21.8508 0.00165257 22.1788C0.00165257 22.1788 1.4234 25 9.65894 25C17.8943 25 19.3162 22.1788 19.3162 22.1788C19.3162 21.9681 19.3164 21.8215 19.3166 21.7218C19.315 21.7553 19.3118 21.6903 19.3058 21.3141Z" fill="#D2D2D2"/>
</svg>
