<svg width="20" height="25" viewBox="0 0 20 25" fill="none" xmlns="http://www.w3.org/2000/svg">
<path d="M9.63321 12.2267C12.4496 12.2267 14.7329 9.48966 14.7329 6.11337C14.7329 2.73701 13.9833 0 9.63321 0C5.28313 0 4.53333 2.73701 4.53333 6.11337C4.53333 9.48966 6.81668 12.2267 9.63321 12.2267Z" fill="#2DDA93"/>
<path d="M0.00100584 21.561C0.000134757 21.3551 -0.000736325 21.503 0.00100584 21.561V21.561Z" fill="#2DDA93"/>
<path d="M19.2654 21.7218C19.2682 21.6654 19.2664 21.3308 19.2654 21.7218V21.7218Z" fill="#2DDA93"/>
<path d="M19.2544 21.3141C19.16 15.4325 18.3817 13.7565 12.4258 12.6957C12.4258 12.6957 11.5874 13.75 9.63326 13.75C7.67915 13.75 6.84061 12.6957 6.84061 12.6957C0.949685 13.745 0.124036 15.396 0.0154741 21.123C0.00657206 21.5906 0.00244673 21.6152 0.000854494 21.5609C0.00121637 21.6626 0.00165045 21.8508 0.00165045 22.1788C0.00165045 22.1788 1.41961 25 9.63326 25C17.8468 25 19.2649 22.1788 19.2649 22.1788C19.2649 21.9681 19.265 21.8215 19.2652 21.7218C19.2636 21.7553 19.2605 21.6903 19.2544 21.3141Z" fill="#2DDA93"/>
</svg>
