<svg width="20" height="25" viewBox="0 0 20 25" fill="none" xmlns="http://www.w3.org/2000/svg">
<path d="M9.6589 12.2267C12.4828 12.2267 14.7722 9.48967 14.7722 6.11337C14.7722 2.73701 14.0206 0 9.6589 0C5.29722 0 4.54542 2.73701 4.54542 6.11337C4.54542 9.48967 6.83486 12.2267 9.6589 12.2267Z" fill="#2DDA93"/>
<path d="M0.00100584 21.561C0.000134757 21.3551 -0.000736326 21.503 0.00100584 21.561V21.561Z" fill="#2DDA93"/>
<path d="M19.3168 21.7218C19.3196 21.6654 19.3178 21.3308 19.3168 21.7218V21.7218Z" fill="#2DDA93"/>
<path d="M19.3058 21.3141C19.2111 15.4325 18.4307 13.7566 12.4589 12.6957C12.4589 12.6957 11.6183 13.7501 9.65895 13.7501C7.69963 13.7501 6.85886 12.6957 6.85886 12.6957C0.952216 13.745 0.124365 15.3961 0.0155131 21.123C0.00658731 21.5907 0.00245098 21.6152 0.000854494 21.5609C0.00121733 21.6627 0.00165258 21.8508 0.00165258 22.1789C0.00165258 22.1789 1.4234 25 9.65895 25C17.8944 25 19.3163 22.1789 19.3163 22.1789C19.3163 21.9681 19.3164 21.8215 19.3166 21.7218C19.315 21.7554 19.3118 21.6903 19.3058 21.3141Z" fill="#2DDA93"/>
</svg>
