<svg width="119" height="121" viewBox="0 0 119 121" fill="none" xmlns="http://www.w3.org/2000/svg">
<path d="M106.413 2.28977C106.413 2.28977 96.3173 16.0878 94.5673 17.7705C92.8173 19.4532 113.75 30.4244 113.75 30.4244L106.413 2.28977Z" fill="#F2F2F3"/>
<path d="M0 86.8282L56.4712 4.98211C56.4712 4.98211 105.673 25.7129 112 35.1359C112 35.1359 113.346 33.184 118.26 33.4533C118.26 33.4533 107.76 21.8763 111.529 3.29942L112.404 3.70327C112.471 7.5398 112.808 11.9821 113.817 16.9629C115.096 23.6263 117.115 29.1456 119 33.4533C96.3846 62.4629 73.7019 91.5398 51.0865 120.549L0 86.8282Z" fill="#2DDA93"/>
<path d="M57.3461 5.38594C57.3461 5.38594 62.7308 0.203251 63.2692 0.0013281C63.8077 -0.200595 107.827 22.684 110.048 26.7225C110.048 26.7225 100.423 9.4244 106.683 1.95325L111.462 3.2994C111.462 3.2994 113.279 23.3571 115.433 26.7225C117.587 30.0878 118.192 33.4532 118.192 33.4532L111.26 36.2128L57.3461 5.38594Z" fill="white"/>
</svg>
