<svg width="70" height="44" viewBox="0 0 70 44" fill="none" xmlns="http://www.w3.org/2000/svg">
<path d="M46.8977 23.1792C43.9387 24.3201 41.644 25.1187 41.2213 25.2328C41.1609 25.2328 44.0595 24.5483 47.0184 23.6356C59.76 19.8707 63.1416 18.0454 64.8928 19.6426C65.9798 20.6123 66.0402 22.6088 65.3155 23.6926C64.5305 24.8335 63.1416 24.5483 59.8807 25.1757C57.3445 25.6321 54.2648 26.83 48.045 29.2258C47.3204 29.511 46.958 29.5681 46.5957 29.7962C45.4484 30.5949 38.5643 33.7893 37.6585 34.2456C38.5643 33.8463 45.1465 31.1653 48.2262 30.2526C48.3469 30.1956 48.7696 30.0244 49.4339 29.9674C49.917 29.9103 50.4605 29.8533 50.8832 30.0244C51.6682 30.3667 52.0909 31.5075 51.9097 32.3061C51.6078 33.5611 49.8566 34.1315 49.0112 34.4168C45.8107 35.5576 42.9725 37.5541 39.7117 38.5809C36.5716 39.6077 32.1634 41.2049 26.6078 44H4.8687C1.66821 40.007 -1.04917 33.1048 0.400103 22.3236C0.400103 22.3236 10.2431 11.1431 13.6851 9.14662C13.6851 9.14662 11.2093 11.0861 12.3566 12.1129C13.504 13.1396 28.4194 10.972 42.4291 5.60994C42.8518 5.43881 43.3349 5.26768 43.7576 5.09656C54.5063 0.989446 57.1634 -0.835938 59.6996 0.361969C59.9411 0.476055 61.632 1.27466 61.7527 2.58665C62.1754 6.3515 49.4339 11.1431 46.4749 12.227C46.4146 12.227 45.8711 12.4551 45.0861 12.7403C40.6779 14.4516 35.4846 16.6763 37.5378 17.8742C38.3832 18.3306 41.5837 17.0186 45.5088 15.1932C45.5088 15.1932 52.8759 10.972 64.1078 8.11984C65.2551 7.83462 67.3083 7.32123 68.6972 8.40505C69.603 9.08957 70.1464 10.3445 69.9653 11.4284C69.5426 13.9383 65.4967 14.0523 58.1899 17.4749C52.9363 19.9278 52.4532 21.0116 46.8977 23.1792Z" fill="#F7AF8B"/>
</svg>
