<svg width="100" height="142" viewBox="0 0 100 142" fill="none" xmlns="http://www.w3.org/2000/svg">
<path d="M58.3654 70.9505C58.3654 70.9505 57.5727 69.1668 56.5817 67.5813C55.5908 65.8967 54.5999 64.3112 54.5999 64.3112C54.5008 62.9239 54.5008 61.4376 54.5999 59.9512C54.699 58.4648 54.8972 56.8793 55.0954 55.3929C55.0954 55.3929 55.9872 56.0865 56.879 56.8793C57.7709 57.5729 58.6627 58.3657 58.6627 58.3657C58.6627 58.3657 57.8699 57.1766 57.0772 55.9874C56.2845 54.7983 55.4917 53.6092 55.4917 53.6092C56.0863 50.6364 56.9781 47.6636 58.0681 44.79C58.0681 44.79 58.96 45.4836 59.8518 46.0782C60.7437 46.7718 61.6355 47.3664 61.6355 47.3664C61.6355 47.3664 60.8427 46.3754 60.1491 45.3845C59.3563 44.3936 58.6627 43.4027 58.6627 43.4027C59.7527 40.529 61.0409 37.7544 62.3291 35.0789C62.3291 35.0789 63.1219 35.5743 63.8155 36.0698C64.5092 36.5653 65.3019 37.0607 65.3019 37.0607C65.3019 37.0607 64.7073 36.3671 64.0137 35.5743C63.4191 34.8807 62.7255 34.0879 62.7255 34.0879C65.0046 29.5297 67.1847 25.566 68.8693 22.6923C69.7611 21.2059 70.4547 20.1158 70.9502 19.3231C71.4457 18.5304 71.743 18.0349 71.743 18.0349C71.743 18.0349 71.7429 19.0258 71.6439 20.8095C71.5448 22.5932 71.4457 25.0705 71.2475 28.0433C70.8511 34.0879 69.8602 42.0154 68.3738 49.9428C67.6802 53.9065 66.7883 57.7711 65.8965 61.4376C65.0047 65.104 64.0137 68.4731 62.8246 71.2477C61.7346 74.0223 60.5455 76.3015 59.5545 77.7879C59.0591 78.4815 58.6627 79.0761 58.3654 79.4724C58.0682 79.8688 57.9691 80.067 57.9691 80.067C56.6809 75.0133 55.4917 71.1486 54.8972 67.284C54.8972 67.284 55.789 68.1759 56.5817 69.0677C56.9781 69.4641 57.4736 69.9595 57.7709 70.3559C58.1672 70.6532 58.3654 70.9505 58.3654 70.9505Z" fill="#56873D"/>
<path d="M66.1935 74.3196C66.1935 74.3196 66.689 74.1214 67.3826 73.8241C68.0763 73.5268 69.0672 73.0314 70.0581 72.5359C71.9409 71.545 73.8237 70.4549 73.8237 70.4549C74.9137 68.8695 75.7064 67.284 76.4992 65.6985C77.1928 64.113 77.7874 62.4284 78.2829 60.8429C78.2829 60.8429 77.1928 61.1402 76.0037 61.4375C74.9137 61.7348 73.7246 62.0321 73.7246 62.0321C73.7246 62.0321 75.0128 61.2393 76.301 60.4466C77.5892 59.6538 78.7783 58.8611 78.7783 58.8611C79.5711 55.4919 79.8683 52.0237 79.8683 48.6545C79.8683 48.6545 78.7783 49.0509 77.6883 49.3482C76.5983 49.7446 75.5082 50.0418 75.5082 50.0418C75.5082 50.0418 76.5983 49.2491 77.6883 48.5554C78.7783 47.7627 79.7692 46.97 79.7692 46.97C79.6702 43.5017 79.2738 40.1325 78.5801 37.0607C78.5801 37.0607 77.7874 37.3579 76.8955 37.7543C76.0037 38.0516 75.211 38.448 75.211 38.448C75.211 38.448 76.0037 37.8534 76.7965 37.2589C77.5892 36.6643 78.3819 35.9707 78.3819 35.9707C77.1928 30.7187 75.5082 26.1605 74.1209 23.0886C73.4273 21.5031 72.8327 20.314 72.3373 19.4221C71.8418 18.6294 71.6436 18.1339 71.6436 18.1339C71.6436 18.1339 71.6436 19.1249 71.5445 20.9085C71.4454 22.6922 71.3463 25.1695 71.1482 28.1423C70.7518 34.187 69.7609 42.1144 68.2745 50.0418C67.5808 54.0055 66.689 57.8702 65.7971 61.5366C64.9053 65.203 63.9144 68.5722 62.7253 71.3468C61.6352 74.1214 60.4461 76.4005 59.4552 77.8869C58.9597 78.5806 58.5634 79.1751 58.2661 79.5715C57.9688 79.9679 57.8697 80.166 57.8697 80.166C60.4461 80.067 63.0225 79.3733 65.3017 78.1842C67.5808 76.9951 69.5627 75.4096 71.2473 73.5268C71.2473 73.5268 69.959 73.725 68.6708 73.9232C67.9772 74.0223 67.3826 74.1214 66.8872 74.1214C66.5899 74.2205 66.1935 74.3196 66.1935 74.3196Z" fill="#669A41"/>
<path d="M49.051 81.2561C49.051 81.2561 48.9519 81.157 48.7537 81.0579C48.5556 80.9588 48.2583 80.8597 47.8619 80.6615C47.1683 80.3642 46.1773 80.0669 45.2855 79.7697C44.2946 79.4724 43.3037 79.2742 42.61 79.076C41.9164 78.9769 41.4209 78.8778 41.4209 78.8778C40.1327 77.8869 38.8445 76.7969 37.4572 75.6078C36.0699 74.4187 34.6826 72.9323 33.1962 71.3468C33.1962 71.3468 34.4844 71.2477 35.6735 71.1486C36.8626 71.0495 38.1508 70.8513 38.1508 70.8513C38.1508 70.8513 37.7545 70.7522 37.1599 70.6531C36.5653 70.554 35.7726 70.3559 34.8808 70.1577C34.088 69.9595 33.1962 69.7613 32.6016 69.6622C32.0071 69.5631 31.6107 69.464 31.6107 69.464C28.8361 66.0949 26.3588 62.3293 24.2778 58.1674C24.2778 58.1674 25.566 58.2665 26.7552 58.2665C27.9443 58.2665 29.2325 58.2665 29.2325 58.2665C29.2325 58.2665 27.7461 57.7711 26.3588 57.2756C24.8724 56.7801 23.386 56.0865 23.386 56.0865C21.5032 51.8255 20.1159 47.1681 19.5214 42.808C19.5214 42.808 19.7196 42.9071 20.1159 43.0062C20.5123 43.1053 21.0078 43.2044 21.4041 43.4026C21.8996 43.5017 22.3951 43.6999 22.6923 43.799C23.0887 43.8981 23.2869 43.8981 23.2869 43.8981C23.2869 43.8981 22.9896 43.6999 22.6923 43.5017C22.296 43.3035 21.8005 42.9071 21.3051 42.6099C20.3141 41.9162 19.3232 41.2226 19.3232 41.2226C19.0259 37.457 19.2241 33.8897 19.8186 30.8178C20.4132 27.7459 21.3051 25.1695 22.296 23.1877C23.2869 21.2058 24.2778 19.8185 24.9715 18.8276C25.7642 17.9357 26.1606 17.4403 26.1606 17.4403C26.1606 17.4403 26.0615 17.7376 25.8633 18.3321C25.6651 18.9267 25.467 19.7194 25.2688 20.8094C24.8724 22.9895 24.5751 26.1605 24.9715 30.0251C25.3678 33.7906 26.4579 38.1507 28.4397 42.6099C30.3225 46.9699 32.998 51.33 36.0699 55.4919C39.0427 59.6538 42.3127 63.5184 45.3846 67.1849C46.871 69.0676 48.3574 70.8513 49.5465 72.635C50.7356 74.4187 51.8256 76.3014 52.5193 77.986C54.1048 81.4542 54.5011 84.7243 54.5011 86.9044C54.5011 87.9944 54.3029 88.8862 54.3029 89.4808C54.2039 90.0753 54.1047 90.3726 54.1047 90.3726C52.6184 87.8953 50.8347 86.1116 49.1501 84.5261C47.4655 83.0397 45.781 81.8506 44.1955 80.6615C44.1955 80.6615 44.4928 80.6615 44.9882 80.6615C45.4837 80.6615 46.0782 80.6615 46.6728 80.7606C47.7628 81.0579 49.051 81.2561 49.051 81.2561Z" fill="#56873D"/>
<path d="M57.0776 78.3824C57.0776 78.3824 57.0776 78.1842 57.1767 77.986C57.2758 77.6887 57.3749 77.2924 57.474 76.896C57.6721 75.9051 57.8703 74.6169 58.0685 73.3287C58.2667 72.0405 58.2667 70.6532 58.3658 69.6622C58.3658 68.6713 58.3658 67.9776 58.3658 67.9776C57.474 65.5994 56.3839 63.5185 55.1948 61.5366C54.0057 59.5548 52.8166 57.8702 51.6275 56.2847C51.6275 56.2847 51.2311 57.4738 50.8347 58.6629C50.4384 59.852 50.1411 61.0411 50.1411 61.0411C50.1411 61.0411 50.1411 60.6448 50.1411 59.9511C50.1411 59.3566 50.1411 58.4647 50.1411 57.672C50.1411 56.8792 50.1411 56.0865 50.1411 55.3929C50.1411 54.7983 50.1411 54.4019 50.1411 54.4019C47.6637 51.3301 45.1864 48.5555 42.8082 45.979C42.8082 45.979 42.3127 46.97 41.8173 48.06C41.3218 49.15 40.8263 50.1409 40.8263 50.1409C40.8263 50.1409 40.9254 48.7536 41.2227 47.3663C41.4209 45.979 41.7182 44.6908 41.7182 44.6908C39.3399 42.1144 37.0608 39.538 35.1781 37.1598C35.1781 37.1598 34.9799 37.358 34.7817 37.5562C34.5835 37.8534 34.2862 38.1507 33.9889 38.5471C33.6917 38.9435 33.3944 39.2407 33.1962 39.538C32.998 39.8353 32.8989 40.0335 32.8989 40.0335C32.8989 40.0335 32.998 39.8353 33.0971 39.4389C33.1962 39.0425 33.3944 38.6462 33.5926 38.1507C33.9889 37.1598 34.3853 36.2679 34.3853 36.2679C32.7998 34.0879 31.3134 31.9079 30.1243 29.8269C28.9352 27.746 28.1425 25.665 27.4488 23.8813C26.8543 22.0977 26.4579 20.5122 26.2597 19.4222C26.0615 18.3321 25.9624 17.7376 25.9624 17.7376C25.9624 17.7376 25.8633 18.0349 25.6651 18.6294C25.467 19.224 25.2688 20.0167 25.0706 21.1067C24.6742 23.2868 24.3769 26.4578 24.7733 30.3224C25.1697 34.0879 26.2597 38.448 28.2416 42.9072C30.1243 47.2673 32.7998 51.6273 35.8717 55.7892C38.8445 59.9511 42.1145 63.8157 45.1864 67.4822C46.6728 69.3649 48.1592 71.1486 49.3483 72.9323C50.5374 74.716 51.6275 76.5987 52.3211 78.2833C53.9066 81.7515 54.303 85.0216 54.303 87.2017C54.303 88.2917 54.1048 89.1835 54.1048 89.7781C54.0057 90.3726 53.9066 90.6699 53.9066 90.6699C56.3839 89.1835 58.2667 86.4089 59.2576 83.337C60.2485 80.1661 60.3476 76.6978 59.7531 73.3287C59.7531 73.3287 59.654 73.6259 59.3567 74.2205C59.1585 74.716 58.7622 75.4096 58.4649 76.0042C57.8703 77.1933 57.0776 78.3824 57.0776 78.3824Z" fill="#486D33"/>
<path d="M56.6806 87.9944C56.6806 87.9944 56.1851 86.1117 55.7887 84.0307C55.5905 83.0398 55.3924 82.0488 55.2933 81.2561C55.1942 80.4634 55.0951 79.9679 55.0951 79.9679C56.1851 76.6978 57.9688 73.8241 60.2479 71.1486C60.2479 71.1486 60.6443 72.2387 60.9416 73.4278C61.3379 74.5178 61.7343 75.6078 61.7343 75.6078C61.7343 75.6078 61.6352 74.1214 61.6352 72.635C61.6352 71.8423 61.6352 71.1486 61.6352 70.5541C61.6352 69.9595 61.6352 69.6622 61.6352 69.6622C62.2298 69.0677 62.8243 68.4731 63.518 67.8786C64.2116 67.284 64.9053 66.7886 65.4998 66.2931C66.8871 65.2031 68.3735 64.4103 69.7608 63.6176C69.7608 63.6176 69.959 64.7076 70.1572 65.7976C70.3554 66.8877 70.5535 67.9777 70.5535 67.9777C70.5535 67.9777 70.6527 66.6895 70.8508 65.4013C70.9499 64.1131 71.1481 62.8248 71.1481 62.8248C72.7336 62.1312 74.22 61.4375 75.8055 60.9421C76.5982 60.6448 77.391 60.4466 78.0846 60.2484C78.8774 60.0502 79.6701 59.8521 80.3637 59.753C80.3637 59.753 80.3637 60.6448 80.4628 61.5366C80.5619 62.4285 80.5619 63.3203 80.5619 63.3203C80.5619 63.3203 80.7601 62.4285 80.9583 61.4375C81.1565 60.4466 81.4538 59.5548 81.4538 59.5548C81.751 59.4557 82.0483 59.4557 82.4447 59.3566C82.742 59.3566 83.0392 59.2575 83.4356 59.2575C84.0302 59.1584 84.7238 59.1584 85.3184 59.0593C85.9129 59.0593 86.5075 58.9602 87.1021 58.9602C87.6966 58.9602 88.2912 58.9602 88.7866 58.9602C90.9667 58.9602 92.9485 59.1584 94.534 59.3566C95.3268 59.4557 96.0204 59.6539 96.714 59.753C97.3086 59.8521 97.9032 60.0502 98.2995 60.1493C99.1914 60.3475 99.5878 60.5457 99.5878 60.5457C99.5878 60.5457 98.6959 60.843 97.2095 61.3385C96.8131 61.4375 96.4168 61.6357 95.9213 61.7348C95.4259 61.933 95.0295 62.1312 94.4349 62.3294C93.9395 62.5276 93.3449 62.7258 92.7503 62.9239C92.1558 63.1221 91.5612 63.4194 90.9667 63.7167C88.4894 64.8067 85.6157 66.2931 82.742 68.0768C79.8683 69.8604 76.8955 72.0405 74.1209 74.3196C71.3463 76.6978 68.7699 79.2742 66.4907 81.7516C64.3107 84.328 62.3289 86.8053 60.8425 89.1835C60.4461 89.7781 60.0497 90.2736 59.7524 90.769C59.4552 91.2645 59.1579 91.859 58.8606 92.2554C58.5633 92.7509 58.266 93.1472 58.0678 93.5436C57.8697 93.94 57.6715 94.3364 57.4733 94.7327C56.7797 96.12 56.2842 96.9128 56.2842 96.9128C55.6896 95.8227 55.2933 94.7327 54.8969 93.5436C54.6987 92.949 54.5005 92.4536 54.4014 91.859C54.3023 91.2645 54.2032 90.769 54.1041 90.1745C53.9059 89.0844 53.8069 87.8953 53.8069 86.7062C53.8069 85.6162 53.9059 84.4271 54.1041 83.337C54.1041 83.337 54.6987 84.4271 55.2933 85.6162C56.086 86.9044 56.6806 87.9944 56.6806 87.9944Z" fill="#56873D"/>
<path d="M63.914 92.6517C63.914 92.6517 65.7968 92.4535 67.6795 92.3544C68.5714 92.2554 69.5623 92.2554 70.256 92.2554C70.9496 92.2554 71.445 92.2554 71.445 92.2554C73.7242 90.9672 75.7061 89.4808 77.5888 87.7962C77.5888 87.7962 76.5979 87.3998 75.5079 87.0034C74.5169 86.6071 73.4269 86.2107 73.4269 86.2107C73.4269 86.2107 74.7151 86.3098 76.0033 86.4089C76.5979 86.508 77.2915 86.6071 77.787 86.6071C78.2825 86.7062 78.5797 86.7062 78.5797 86.7062C79.0752 86.3098 79.4716 85.8143 79.8679 85.418C80.2643 85.0216 80.7598 84.5261 81.1562 84.0307C81.9489 83.0397 82.8407 82.1479 83.5344 81.157C83.5344 81.157 82.6426 80.6615 81.6516 80.0669C80.7598 79.5715 79.7689 79.076 79.7689 79.076C79.7689 79.076 80.958 79.3733 82.048 79.5715C83.138 79.8688 84.228 80.166 84.228 80.166C85.0208 79.1751 85.8135 78.0851 86.6063 77.1932C87.0026 76.6978 87.399 76.2023 87.7954 75.7069C88.1917 75.2114 88.5881 74.7159 88.9845 74.2205C88.9845 74.2205 88.2908 73.725 87.5972 73.2295C86.9035 72.7341 86.2099 72.2386 86.2099 72.2386C86.2099 72.2386 87.1017 72.5359 87.8945 72.8332C88.6872 73.1304 89.5791 73.5268 89.5791 73.5268C92.1555 70.0586 94.7319 66.7885 96.6147 64.5094C97.1101 63.9148 97.5065 63.4193 97.9028 62.9239C98.2992 62.4284 98.5965 62.032 98.8938 61.7348C99.4883 61.0411 99.7856 60.6447 99.7856 60.6447C99.7856 60.6447 98.8938 60.942 97.4074 61.4375C97.011 61.5366 96.6147 61.7348 96.1192 61.8339C95.6237 62.032 95.2274 62.2302 94.6328 62.4284C94.1373 62.6266 93.5428 62.8248 92.9482 63.023C92.3536 63.2212 91.7591 63.5184 91.1645 63.8157C88.6872 64.9057 85.8135 66.3921 82.9398 68.1758C80.0661 69.9595 77.0934 72.1395 74.3188 74.4186C71.5442 76.7969 68.9677 79.3733 66.6886 81.8506C64.5086 84.427 62.5267 86.9044 61.0403 89.2826C60.6439 89.8771 60.2476 90.3726 59.9503 90.8681C59.653 91.3635 59.3557 91.9581 59.0584 92.3544C58.7612 92.8499 58.4639 93.2463 58.2657 93.6427C58.0675 94.039 57.8693 94.4354 57.6711 94.8318C56.9775 96.2191 56.4821 97.0118 56.4821 97.0118C57.7703 96.8136 58.9593 96.6154 60.0494 96.3182C60.6439 96.2191 61.1394 96.0209 61.6349 95.9218C62.1303 95.8227 62.7249 95.6245 63.2204 95.5254C64.2113 95.2281 65.2022 94.9309 66.094 94.5345C66.9859 94.2372 67.8777 93.8408 68.7696 93.4445C68.7696 93.4445 67.5804 93.1472 66.3913 92.949C65.1031 92.8499 63.914 92.6517 63.914 92.6517Z" fill="#486D33"/>
<path d="M46.5737 83.3371C46.5737 83.3371 46.0782 82.8416 45.3845 82.1479C44.6909 81.4543 43.6999 80.4634 42.8081 79.5715C41.9163 78.5806 40.9253 77.5897 40.2317 76.7969C39.538 76.0042 39.1417 75.5087 39.1417 75.5087C38.2499 73.0314 37.4571 70.455 36.9616 67.8786C36.4662 65.3022 36.0698 62.6267 35.8716 59.9512C35.8716 59.9512 36.9616 60.7439 38.0517 61.6357C38.5471 62.0321 39.1417 62.4285 39.5381 62.7258C39.9344 63.023 40.2317 63.2212 40.2317 63.2212C40.2317 63.2212 39.9344 62.8248 39.5381 62.2303C39.1417 61.6357 38.5471 60.843 37.9526 60.0502C37.358 59.2575 36.8625 58.4648 36.4662 57.8702C36.0698 57.2756 35.7725 56.8793 35.7725 56.8793C35.6734 51.5283 36.1689 46.2763 37.0607 41.3217C37.0607 41.3217 37.9526 42.2135 38.9435 43.1054C39.9344 43.9972 40.8262 44.889 40.8262 44.889C40.8262 44.889 40.0335 43.4027 39.1417 42.0154C38.3489 40.529 37.5562 39.0426 37.5562 39.0426C38.6462 33.9888 40.0335 29.3315 41.619 25.0705L44.4927 28.0433C44.4927 28.0433 43.8981 26.9532 43.4027 25.7641C42.8081 24.6741 42.3126 23.485 42.3126 23.485C43.6999 19.8186 45.0873 16.5485 46.5737 13.4766C47.2673 11.9902 48.06 10.5038 48.8528 9.21563C49.6455 7.92742 50.4382 6.73831 51.1319 5.64829C52.6183 3.56734 54.1047 2.18004 55.0956 1.28821C55.5911 0.792742 55.9875 0.495463 56.2847 0.297278C56.582 0.0990921 56.6811 0 56.6811 0C56.6811 0 56.4829 0.29728 56.0865 0.891837C55.8884 1.18912 55.6902 1.58548 55.492 2.08095C55.2938 2.57641 54.9965 3.07188 54.6992 3.66643C53.6092 6.04466 52.5192 9.71109 51.7265 14.1703C51.3301 16.4494 50.9337 18.8276 50.6364 21.404C50.2401 23.9805 49.9428 26.656 49.5464 29.5297C48.8528 35.178 48.2582 41.2226 48.06 47.2673C47.7628 53.3119 47.8618 59.3566 48.3573 65.0049C48.7537 70.6532 49.6455 75.9051 50.6364 80.3643C51.6274 84.8234 52.7174 88.3908 53.6092 90.9672C53.8074 91.5618 54.0056 92.1563 54.2038 92.6518C54.402 93.1472 54.5011 93.5436 54.6992 93.8409C54.9965 94.5345 55.0956 94.8318 55.0956 94.8318C49.5464 91.7599 44.889 86.7062 41.7181 80.7606C41.7181 80.7606 43.0063 81.4543 44.2945 82.1479C45.2854 82.6434 46.5737 83.3371 46.5737 83.3371Z" fill="#94C93D"/>
<path d="M54.8973 81.2561C54.8973 81.2561 55.0955 80.6615 55.4919 79.7697C55.8882 78.8779 56.3837 77.7879 56.8792 76.6978C57.3746 75.6078 57.9692 74.5178 58.3656 73.7251C58.7619 72.9323 59.0592 72.3378 59.0592 72.3378C59.4556 67.9777 59.5547 63.5185 59.6538 59.0593C59.6538 59.0593 58.6628 59.8521 57.6719 60.6448C57.1764 61.0412 56.681 61.4375 56.2846 61.7348C55.8882 62.0321 55.69 62.2303 55.69 62.2303C55.69 62.2303 55.8882 61.8339 56.2846 61.3385C56.681 60.7439 57.1764 60.0502 57.6719 59.3566C58.1674 58.6629 58.6628 57.8702 59.0592 57.3747C59.4556 56.8793 59.6538 56.4829 59.6538 56.4829C59.6538 51.9246 59.4556 47.3664 59.1583 42.8081C59.1583 42.8081 58.1674 43.5017 57.0773 44.1954C56.0864 44.889 54.9964 45.5827 54.9964 45.5827C54.9964 45.5827 55.9873 44.3936 56.9783 43.1054C57.9692 41.9163 58.9601 40.7271 58.9601 40.7271C58.6628 36.0698 58.3656 31.5115 57.8701 27.1514L54.4018 29.1333C54.4018 29.1333 55.1946 28.2414 56.0864 27.3496C56.8791 26.4578 57.771 25.5659 57.771 25.5659C57.3746 21.8004 56.9782 18.2331 56.5819 15.2603C56.1855 12.1884 55.8882 9.612 55.8882 7.33287C55.7891 5.05373 55.9873 3.27006 56.0864 1.98186C56.1855 1.28821 56.2846 0.792743 56.2846 0.495464C56.3837 0.198186 56.3837 0 56.3837 0C56.3837 0 56.1855 0.29728 55.7891 0.891837C55.591 1.18912 55.3928 1.58548 55.1946 2.08095C54.9964 2.57641 54.6991 3.07188 54.4018 3.66643C53.3118 6.04466 52.2218 9.71109 51.4291 14.1703C51.0327 16.4494 50.6363 18.8276 50.339 21.404C49.9427 23.9805 49.6454 26.656 49.249 29.5297C48.5553 35.178 47.9608 41.2226 47.7626 47.2673C47.4653 53.3119 47.5644 59.3566 48.0599 65.0049C48.4563 70.6532 49.3481 75.9051 50.339 80.3643C51.33 84.8234 52.42 88.3908 53.3118 90.9672C53.51 91.5618 53.7082 92.1563 53.9064 92.6518C54.1046 93.1472 54.2037 93.5436 54.4018 93.8409C54.6991 94.5345 54.7982 94.8318 54.7982 94.8318C56.7801 88.7872 57.8701 82.9407 58.6628 77.1933C58.6628 77.1933 57.771 78.1842 56.7801 79.2742C55.7891 80.1661 54.8973 81.2561 54.8973 81.2561Z" fill="#70B744"/>
<path d="M45.3845 97.3092C45.3845 97.3092 44.889 97.2101 44.1954 97.111C43.5017 97.0119 42.6099 96.9128 41.619 96.8138C40.7272 96.7147 39.7362 96.7147 39.0426 96.8138C38.3489 96.8138 37.8535 96.8138 37.8535 96.8138C35.4752 95.6246 33.2952 94.3364 31.1152 92.85C31.1152 92.85 32.1061 92.2555 33.097 91.76C33.5925 91.4627 34.0879 91.2645 34.4843 91.0664C34.8807 90.8682 35.0789 90.7691 35.0789 90.7691C35.0789 90.7691 33.6916 90.9673 32.4033 91.2646C31.7097 91.4627 31.1152 91.5618 30.6197 91.6609C30.1242 91.76 29.8269 91.8591 29.8269 91.8591C27.6469 90.2736 25.4669 88.589 23.1877 86.9045C23.1877 86.9045 24.0795 86.2108 24.8723 85.5172C25.7641 84.8235 26.656 84.229 26.656 84.229C26.656 84.229 25.4668 84.6253 24.3768 85.1208C23.7823 85.319 23.2868 85.6163 22.7914 85.7154C22.395 85.9135 22.0977 86.0126 22.0977 86.0126C19.8186 84.229 17.4403 82.2471 15.1612 80.4634C15.1612 80.4634 15.8549 79.8689 16.4494 79.2743C17.1431 78.6798 17.7376 78.0852 17.7376 78.0852C17.7376 78.0852 16.8458 78.4816 15.9539 78.977C15.0621 79.3734 14.2694 79.8689 14.2694 79.8689C10.3057 76.5988 6.63922 73.5269 4.06281 71.2478C1.4864 68.8696 0 67.3832 0 67.3832C0 67.3832 0.990931 67.6805 2.7746 68.1759C4.55827 68.6714 7.0356 69.365 10.0084 70.2569C15.9539 72.0405 23.9805 74.716 31.2143 78.8779C34.7816 80.9589 38.2498 83.4362 41.1235 86.0126C43.9972 88.6881 46.3755 91.4627 48.06 94.1382C49.7446 96.8138 50.6364 99.2911 51.0328 101.075C51.231 101.967 51.3301 102.66 51.4292 103.156C51.5283 103.651 51.5283 103.948 51.5283 103.948C49.3482 102.363 47.3664 101.372 45.4836 100.579C43.6008 99.7865 41.9163 99.0929 40.2317 98.3001C40.2317 98.3001 41.4208 98.0029 42.6099 97.8047C44.0963 97.4083 45.3845 97.3092 45.3845 97.3092Z" fill="#56873D"/>
<path d="M52.8164 93.0482C52.8164 93.0482 52.9155 92.5527 53.1136 91.6609C53.2127 90.8682 53.4109 89.679 53.51 88.589C53.6091 87.3999 53.6091 86.3099 53.6091 85.418C53.6091 85.0217 53.6091 84.6253 53.6091 84.328C53.6091 84.0307 53.6091 83.9317 53.6091 83.9317C51.8254 80.1661 49.15 76.797 46.0781 74.1215C46.0781 74.1215 45.979 75.3106 45.8799 76.5988C45.7808 77.1933 45.6817 77.7879 45.6817 78.2834C45.5826 78.7788 45.5826 79.0761 45.5826 79.0761C45.5826 79.0761 45.3844 77.4906 44.988 75.9051C44.7899 75.1124 44.5917 74.3197 44.4926 73.7251C44.2944 73.1305 44.1953 72.7342 44.1953 72.7342C40.9252 70.2568 37.2588 68.4732 33.5924 67.2841C33.5924 67.2841 33.6914 68.4732 33.7905 69.5632C33.8896 70.7523 33.8896 71.8423 33.8896 71.8423C33.8896 71.8423 33.3942 70.5541 32.8987 69.2659C32.6014 68.5723 32.4033 67.9777 32.2051 67.4822C32.0069 66.9868 31.9078 66.6895 31.9078 66.6895C28.1423 65.5995 24.5749 65.104 21.2058 64.9058C21.2058 64.9058 21.4039 65.7977 21.503 66.6895C21.6021 67.5813 21.8003 68.4732 21.8003 68.4732C21.8003 68.4732 21.4039 67.5813 20.9085 66.5904C20.413 65.6986 20.0166 64.8067 20.0166 64.8067C14.2693 64.6086 9.41372 65.4013 6.04457 65.9959C2.57632 66.6895 0.495365 67.2841 0.495365 67.2841C0.495365 67.2841 1.4863 67.5813 3.26997 68.0768C5.05364 68.5723 7.53096 69.2659 10.5037 70.1578C16.4493 71.9414 24.4758 74.6169 31.7096 78.7788C35.277 80.8598 38.7452 83.3371 41.6189 85.9135C44.4926 88.589 46.8708 91.3636 48.5554 94.0391C50.24 96.7146 51.1318 99.1919 51.5282 100.976C51.7264 101.867 51.8255 102.561 51.9245 103.057C52.0236 103.552 52.0236 103.849 52.0236 103.849C52.9155 102.957 53.8073 101.867 54.4019 100.579C54.9964 99.3901 55.3928 98.0028 55.6901 96.7146C56.1855 93.94 55.9873 91.0663 55.2937 88.3908C55.2937 88.3908 54.7982 89.679 54.2037 90.8681C53.51 91.9582 52.8164 93.0482 52.8164 93.0482Z" fill="#669A41"/>
<path d="M83.4355 87.5981H17.6378L23.3852 142H77.7872L83.4355 87.5981Z" fill="#7D5426"/>
<path d="M85.7154 95.1291H15.3595L14.765 87.5981H86.3099L85.7154 95.1291Z" fill="#956235"/>
</svg>
