<svg width="25" height="24" viewBox="0 0 25 24" fill="none" xmlns="http://www.w3.org/2000/svg">
<path d="M24.5801 10.5571L13.3634 0.336498C12.8711 -0.112182 12.1287 -0.112133 11.6365 0.336449L0.419825 10.5571C0.0254415 10.9165 -0.104831 11.4702 0.0878435 11.9677C0.280567 12.4652 0.749804 12.7866 1.28335 12.7866H3.07484V23.0269C3.07484 23.4329 3.40404 23.7621 3.81004 23.7621H9.95816C10.3642 23.7621 10.6934 23.4329 10.6934 23.0269V16.8093H14.3067V23.0269C14.3067 23.4329 14.6359 23.7621 15.0419 23.7621H21.1898C21.5958 23.7621 21.925 23.433 21.925 23.0269V12.7866H23.7168C24.2503 12.7866 24.7196 12.4652 24.9123 11.9677C25.1047 11.4701 24.9745 10.9165 24.5801 10.5571Z" fill="white"/>
</svg>
