<svg width="19" height="17" viewBox="0 0 19 17" fill="none" xmlns="http://www.w3.org/2000/svg">
<path d="M5.40909 8.24242C4.98233 8.24242 4.63636 8.58839 4.63636 9.01515C4.63636 9.44192 4.98233 9.78788 5.40909 9.78788V8.24242ZM12.3636 9.78788C12.7904 9.78788 13.1364 9.44192 13.1364 9.01515C13.1364 8.58839 12.7904 8.24242 12.3636 8.24242V9.78788ZM1.93182 5.15152C1.50505 5.15152 1.15909 5.49748 1.15909 5.92424C1.15909 6.35101 1.50505 6.69697 1.93182 6.69697V5.15152ZM15.2614 0C14.8346 0 14.4886 0.345962 14.4886 0.772727C14.4886 1.19949 14.8346 1.54545 15.2614 1.54545V0ZM0.772727 11.3333C0.345962 11.3333 0 11.6793 0 12.1061C0 12.5328 0.345962 12.8788 0.772727 12.8788V11.3333ZM15.8409 15.4545C15.4141 15.4545 15.0682 15.8005 15.0682 16.2273C15.0682 16.654 15.4141 17 15.8409 17V15.4545ZM5.40909 9.78788H12.3636V8.24242H5.40909V9.78788ZM1.93182 6.69697H15.2614V5.15152H1.93182V6.69697ZM17.3864 3.34848C17.3864 4.26122 16.523 5.15152 15.2614 5.15152V6.69697C17.2004 6.69697 18.9318 5.28085 18.9318 3.34848H17.3864ZM15.2614 1.54545C16.523 1.54545 17.3864 2.43575 17.3864 3.34848H18.9318C18.9318 1.41612 17.2004 0 15.2614 0V1.54545ZM0.772727 12.8788H15.8409V11.3333H0.772727V12.8788ZM17.3864 14.1667C17.3864 14.7949 16.7825 15.4545 15.8409 15.4545V17C17.4599 17 18.9318 15.8145 18.9318 14.1667H17.3864ZM15.8409 12.8788C16.7825 12.8788 17.3864 13.5384 17.3864 14.1667H18.9318C18.9318 12.5188 17.4599 11.3333 15.8409 11.3333V12.8788Z" fill="#EBEBF5" fill-opacity="0.3"/>
</svg>
