<svg width="18" height="17" viewBox="0 0 18 17" fill="none" xmlns="http://www.w3.org/2000/svg">
<path fill-rule="evenodd" clip-rule="evenodd" d="M17.6403 8.69325C17.6403 8.09052 17.583 7.51096 17.4767 6.9546H9.00017V10.2426H13.8439C13.6352 11.3051 13.0011 12.2053 12.0479 12.8081V14.9408H14.9566C16.6585 13.461 17.6403 11.2819 17.6403 8.69325Z" fill="#4285F4"/>
<path fill-rule="evenodd" clip-rule="evenodd" d="M8.99996 17.0001C11.43 17.0001 13.4673 16.2389 14.9564 14.9407L12.0477 12.808C11.2418 13.318 10.2109 13.6193 8.99996 13.6193C6.65583 13.6193 4.6717 12.1241 3.96396 10.115H0.957096V12.3173C2.43803 15.0953 5.48172 17.0001 8.99996 17.0001Z" fill="#34A853"/>
<path fill-rule="evenodd" clip-rule="evenodd" d="M3.96416 10.1152C3.78415 9.60523 3.68188 9.06045 3.68188 8.50022C3.68188 7.93998 3.78415 7.39521 3.96416 6.8852V4.68291H0.957289C0.347733 5.83042 0 7.12861 0 8.50022C0 9.87182 0.347733 11.17 0.957289 12.3175L3.96416 10.1152Z" fill="#FBBC05"/>
<path fill-rule="evenodd" clip-rule="evenodd" d="M8.99996 3.38072C10.3213 3.38072 11.5077 3.80958 12.4405 4.65186L15.0219 2.21389C13.4632 0.842281 11.4259 0 8.99996 0C5.48172 0 2.43803 1.90479 0.957096 4.68277L3.96396 6.88507C4.6717 4.87596 6.65583 3.38072 8.99996 3.38072Z" fill="#EA4335"/>
</svg>
