<svg width="21" height="18" viewBox="0 0 21 18" fill="none" xmlns="http://www.w3.org/2000/svg">
<path d="M6.23435 9.84373C6.23435 12.1996 8.14411 14.1093 10.4999 14.1093C12.8558 14.1093 14.7656 12.1996 14.7656 9.84373C14.7656 7.48789 12.8558 5.57813 10.5 5.57813C8.14415 5.57813 6.23435 7.48789 6.23435 9.84373ZM19.6875 2.62501H15.0937C14.7656 1.31248 14.4375 0 13.125 0H7.87498C6.5625 0 6.23435 1.31248 5.90624 2.62501H1.31248C0.590624 2.62501 0 3.21563 0 3.93749V15.75C0 16.4718 0.590624 17.0624 1.31248 17.0624H19.6875C20.4093 17.0624 21 16.4718 21 15.75V3.93749C20.9999 3.21563 20.4093 2.62501 19.6875 2.62501ZM10.5 15.6679C7.28337 15.6679 4.67577 13.0604 4.67577 9.84373C4.67577 6.62711 7.28333 4.01951 10.5 4.01951C13.7166 4.01951 16.3242 6.62707 16.3242 9.84373C16.3242 13.0604 13.7167 15.6679 10.5 15.6679ZM19.6875 6.5625H17.0625V5.25001H19.6875V6.5625Z" fill="white"/>
</svg>
