<svg width="33" height="40" viewBox="0 0 33 40" fill="none" xmlns="http://www.w3.org/2000/svg">
<path d="M22.3269 20.7404C23.6538 20.4519 25.7885 20.3365 28.8461 21.3461C25.1538 22.4423 22.9904 22.2692 21.8365 21.9231C22.6154 22.4711 23.7404 23.8269 22.9327 27.0865C20.6827 25.1827 20.4808 23.5961 20.6827 22.6154C19.9038 23.5961 18.375 24.8942 15.4327 26.2211C16.9038 23.6538 18.4904 22.3269 19.6731 21.6635C18.4327 21.5481 16.6154 20.9423 14.9423 18.7788C19.0673 19.0096 20.4519 20.1923 20.9135 20.9423C20.7692 20.0769 21.0577 18.3173 24.0577 15.6058C24.2019 18.2885 23.1923 19.875 22.3269 20.7404Z" fill="#486D33"/>
<path d="M24.9231 14.9712C22.4712 17.8558 21.1442 21.6635 21.2019 25.4423" stroke="#486D33" stroke-width="3" stroke-miterlimit="10"/>
<path d="M19.5577 15.4904C17.7693 18.9231 16.9039 22.8462 17.077 26.7404" stroke="#486D33" stroke-width="3" stroke-miterlimit="10"/>
<path d="M8.97115 15.577C9.14423 15.6346 9.28846 15.7212 9.46154 15.8366C11.1058 16.9616 12.2019 18.7789 12.8365 20.6827C13.4711 22.5866 13.6731 24.5769 13.875 26.5673" stroke="#486D33" stroke-width="3" stroke-miterlimit="10"/>
<path d="M11.8558 9.34618C13.5865 14.7693 14.5096 20.4231 14.5385 26.1346" stroke="#486D33" stroke-width="3" stroke-miterlimit="10"/>
<path d="M22.5865 6.40387C22.2115 6.51925 21.9231 6.83656 21.6634 7.12502C20.625 8.30771 19.5865 9.4904 18.8654 10.9039C18.5481 11.5385 18.2885 12.2308 18.0865 12.9231C16.6731 17.3366 16.1827 22.0096 16.0961 26.625" stroke="#486D33" stroke-width="3" stroke-miterlimit="10"/>
<path d="M20.5673 16.7308C22.1826 17.1346 24.7788 17.3077 28.5288 16.1538C24.0576 14.7115 21.4038 14.8846 19.9903 15.2885C20.9711 14.6538 22.3557 13.0096 21.4615 8.99999C18.6923 11.2788 18.4038 13.1827 18.6057 14.3942C17.6826 13.1827 15.8653 11.5673 12.3173 9.86538C14.0769 13.0385 15.9519 14.6827 17.3653 15.5481C15.8653 15.6634 13.6153 16.3558 11.5096 18.9519C16.5288 18.75 18.2596 17.3654 18.8653 16.4711C18.6634 17.5384 18.9807 19.6731 22.5576 23.0769C22.7884 19.7596 21.6057 17.7981 20.5673 16.7308Z" fill="#56873D"/>
<path d="M7.99038 16.2115C6.40385 16.6731 3.77884 16.9327 0 15.9231C4.41346 14.3365 7.0673 14.4231 8.50961 14.7692C7.49999 14.1634 6.08654 12.5769 6.83654 8.53845C9.6923 10.7019 10.0385 12.6346 9.86538 13.8173C10.7596 12.5769 12.5192 10.9038 16.0096 9.08652C14.3654 12.2884 12.5481 14.0192 11.1635 14.9134C12.6635 14.9711 14.9423 15.5769 17.1346 18.1154C12.1154 18.0865 10.3269 16.7596 9.72115 15.8654C9.95192 16.9038 9.72115 19.0673 6.23077 22.5865C5.85577 19.2981 6.98077 17.3077 7.99038 16.2115Z" fill="#70B744"/>
<path d="M22.3846 16.2404C20.7981 15.75 18.4904 14.5384 15.8942 11.5961C20.4519 12.7211 22.6154 14.25 23.625 15.3173C23.1346 14.25 22.8173 12.1442 25.6442 9.2019C26.8269 12.5769 26.0769 14.3942 25.2692 15.2884C26.6827 14.7404 29.1058 14.3077 33 14.7115C29.8558 16.5 27.4039 16.9327 25.7308 16.9038C26.9423 17.798 28.5 19.5288 28.9615 22.8461C24.7789 20.048 24.0289 17.9711 24 16.875C23.625 17.8846 22.2404 19.5577 17.3942 20.5673C18.8942 17.6538 20.9423 16.6154 22.3846 16.2404Z" fill="#70B744"/>
<path d="M23.2788 8.71153C24.7212 9.49038 27.2019 10.3269 31.125 10.1827C27.1442 7.67307 24.5481 7.15384 23.0769 7.18269C24.1731 6.80769 25.9327 5.5673 26.0769 1.47115C22.8173 2.97115 22.0385 4.75961 21.9519 5.97115C21.3462 4.55769 19.9904 2.53846 17.0192 0C17.9135 3.49038 19.2981 5.5673 20.4519 6.74999C18.9519 6.49038 16.6154 6.57692 13.9327 8.53846C18.8365 9.63461 20.8558 8.71153 21.6635 7.99038C21.2019 8.97115 20.9712 11.1346 23.5673 15.3173C24.6635 12.1731 24 9.98076 23.2788 8.71153Z" fill="#94C93D"/>
<path d="M10.5577 10.125C9.25958 10.5289 7.12496 10.7885 4.00958 10.0096C7.61535 8.65387 9.7788 8.68272 10.9615 8.94234C10.125 8.45195 8.94227 7.18272 9.49035 3.86541C11.8557 5.59618 12.173 7.18272 12.0576 8.16349C12.7788 7.12503 14.1923 5.74042 17.0192 4.18272C15.7211 6.83657 14.25 8.27887 13.125 9.02887C14.3653 9.05772 16.2115 9.51926 18.0576 11.5673C13.9326 11.625 12.4615 10.5577 11.9423 9.83657C12.1442 10.7019 11.9711 12.4616 9.20188 15.4039C8.85573 12.6923 9.74996 11.0481 10.5577 10.125Z" fill="#94C93D"/>
<path d="M26.7115 24.3173H7.78845L9.40383 39.9808H25.0673L26.7115 24.3173Z" fill="#7D5426"/>
<path d="M27.375 26.5096H7.09615L6.92308 24.3173H27.5481L27.375 26.5096Z" fill="#956235"/>
<path d="M15 21.1154C16.3557 21.2596 18.4326 21.8365 21 23.7404C17.1346 23.625 15.1442 22.7596 14.1634 22.0673C14.7403 22.8173 15.375 24.4615 13.5865 27.3173C12.0577 24.8077 12.375 23.25 12.8653 22.3846C11.8269 23.0481 9.95189 23.8269 6.74996 24.1731C8.97112 22.2115 10.875 21.4327 12.2019 21.1731C11.0769 20.6827 9.51919 19.5288 8.59612 16.9615C12.4327 18.4904 13.3846 20.0192 13.5865 20.8846C13.7307 20.0192 14.5384 18.4327 18.2596 16.7884C17.5384 19.3846 16.0673 20.5673 15 21.1154Z" fill="#94C93D"/>
</svg>
