<svg width="10" height="18" viewBox="0 0 10 18" fill="none" xmlns="http://www.w3.org/2000/svg">
<path d="M0.225946 16.6831C-0.0753154 16.9844 -0.0753154 17.4728 0.225946 17.7741C0.527208 18.0753 1.01565 18.0753 1.31691 17.7741L0.225946 16.6831ZM9 9L9.54548 9.54548C9.69015 9.40081 9.77143 9.2046 9.77143 9C9.77143 8.79541 9.69015 8.59919 9.54548 8.45452L9 9ZM1.31691 0.225946C1.01565 -0.0753154 0.527208 -0.0753154 0.225946 0.225946C-0.0753154 0.527208 -0.0753154 1.01565 0.225946 1.31691L1.31691 0.225946ZM1.31691 17.7741L9.54548 9.54548L8.45452 8.45452L0.225946 16.6831L1.31691 17.7741ZM9.54548 8.45452L1.31691 0.225946L0.225946 1.31691L8.45452 9.54548L9.54548 8.45452Z" fill="#EBEBF5" fill-opacity="0.3"/>
</svg>
