<svg width="23" height="26" viewBox="0 0 23 26" fill="none" xmlns="http://www.w3.org/2000/svg">
<path d="M12.2544 16.8728C12.2544 16.4562 11.9167 16.1184 11.5 16.1184C11.0834 16.1184 10.7456 16.4562 10.7456 16.8728H12.2544ZM10.7456 24.932C10.7456 25.3487 11.0834 25.6864 11.5 25.6864C11.9167 25.6864 12.2544 25.3487 12.2544 24.932H10.7456ZM22.2456 12.8432L21.9082 13.518C22.1421 13.6349 22.4198 13.6224 22.6422 13.485C22.8646 13.3475 23 13.1047 23 12.8432H22.2456ZM19.0983 5.24492L18.5649 5.77837L19.0983 5.24492ZM4.43517 5.77837C4.72979 5.48376 4.72979 5.00609 4.43517 4.71148C4.14056 4.41686 3.66289 4.41686 3.36828 4.71148L4.43517 5.77837ZM0.754408 12.8432H0C0 13.1047 0.13538 13.3475 0.357792 13.485C0.580204 13.6224 0.857932 13.6349 1.09179 13.518L0.754408 12.8432ZM8.81361 11.5L9.15099 10.8253C8.93861 10.7191 8.68862 10.7191 8.47623 10.8253L8.81361 11.5ZM11.5 12.8432L11.1626 13.518C11.375 13.6242 11.625 13.6242 11.8374 13.518L11.5 12.8432ZM14.1864 11.5L14.5238 10.8253C14.3114 10.7191 14.0614 10.7191 13.849 10.8253L14.1864 11.5ZM16.8728 12.8432L16.5354 13.518C16.7478 13.6242 16.9978 13.6242 17.2102 13.518L16.8728 12.8432ZM19.5592 11.5L19.8966 10.8253C19.6842 10.7191 19.4342 10.7191 19.2218 10.8253L19.5592 11.5ZM6.12721 12.8432L5.78983 13.518C6.00222 13.6242 6.25221 13.6242 6.46459 13.518L6.12721 12.8432ZM3.44081 11.5L3.77819 10.8253C3.5658 10.7191 3.31581 10.7191 3.10343 10.8252L3.44081 11.5ZM8.62499 1.70835C8.22157 1.81252 7.97899 2.224 8.08316 2.62742C8.18734 3.03083 8.59882 3.27342 9.00223 3.16924L8.62499 1.70835ZM12.2544 0.754408C12.2544 0.33776 11.9167 0 11.5 0C11.0834 0 10.7456 0.33776 10.7456 0.754408H12.2544ZM10.7456 16.8728V24.932H12.2544V16.8728H10.7456ZM23 12.8432C23 9.79322 21.7884 6.86815 19.6318 4.71148L18.5649 5.77837C20.4386 7.65208 21.4912 10.1934 21.4912 12.8432H23ZM19.6318 4.71148C17.4751 2.55481 14.55 1.3432 11.5 1.3432V2.85202C14.1498 2.85202 16.6911 3.90466 18.5649 5.77837L19.6318 4.71148ZM3.36828 4.71148C1.21161 6.86815 0 9.79322 0 12.8432H1.50882C1.50882 10.1934 2.56146 7.65208 4.43517 5.77837L3.36828 4.71148ZM8.47623 12.1748L11.1626 13.518L11.8374 12.1685L9.15099 10.8253L8.47623 12.1748ZM11.8374 13.518L14.5238 12.1748L13.849 10.8253L11.1626 12.1685L11.8374 13.518ZM13.849 12.1748L16.5354 13.518L17.2102 12.1685L14.5238 10.8253L13.849 12.1748ZM17.2102 13.518L19.8966 12.1748L19.2218 10.8253L16.5354 12.1685L17.2102 13.518ZM19.2218 12.1748L21.9082 13.518L22.583 12.1685L19.8966 10.8253L19.2218 12.1748ZM6.46459 13.518L9.15099 12.1748L8.47623 10.8253L5.78983 12.1685L6.46459 13.518ZM1.09179 13.518L3.77819 12.1748L3.10343 10.8252L0.417027 12.1684L1.09179 13.518ZM3.10343 12.1748L5.78983 13.518L6.46459 12.1685L3.77819 10.8253L3.10343 12.1748ZM11.5 1.3432C10.5218 1.3432 9.55635 1.46785 8.62499 1.70835L9.00223 3.16924C9.81134 2.96031 10.6501 2.85202 11.5 2.85202V1.3432ZM10.7456 0.754408V2.09761H12.2544V0.754408H10.7456Z" fill="#D2D2D2"/>
</svg>
