<svg width="18" height="20" viewBox="0 0 18 20" fill="none" xmlns="http://www.w3.org/2000/svg">
<path d="M9.74359 13.0769C9.74359 12.6521 9.39919 12.3077 8.97436 12.3077C8.54952 12.3077 8.20513 12.6521 8.20513 13.0769H9.74359ZM8.20513 19.2308C8.20513 19.6556 8.54952 20 8.97436 20C9.39919 20 9.74359 19.6556 9.74359 19.2308H8.20513ZM17.1795 10L16.8355 10.688C17.0739 10.8072 17.3571 10.7945 17.5839 10.6543C17.8107 10.5142 17.9487 10.2666 17.9487 10H17.1795ZM14.7763 4.1981L14.2323 4.74203L14.7763 4.1981ZM3.71639 4.74203C4.01679 4.44162 4.01679 3.95457 3.71639 3.65417C3.41598 3.35377 2.92893 3.35377 2.62853 3.65417L3.71639 4.74203ZM0.769231 10H0C0 10.2666 0.13804 10.5142 0.364822 10.6543C0.591604 10.7945 0.874788 10.8072 1.11324 10.688L0.769231 10ZM6.92308 8.97436L7.26709 8.28634C7.05053 8.17806 6.79563 8.17806 6.57907 8.28634L6.92308 8.97436ZM8.97436 10L8.63035 10.688C8.84691 10.7963 9.10181 10.7963 9.31837 10.688L8.97436 10ZM11.0256 8.97436L11.3697 8.28634C11.1531 8.17806 10.8982 8.17806 10.6816 8.28634L11.0256 8.97436ZM13.0769 10L12.7329 10.688C12.9495 10.7963 13.2044 10.7963 13.4209 10.688L13.0769 10ZM15.1282 8.97436L15.4722 8.28634C15.2557 8.17806 15.0008 8.17806 14.7842 8.28634L15.1282 8.97436ZM4.87179 10L4.52778 10.688C4.74434 10.7963 4.99925 10.7963 5.21581 10.688L4.87179 10ZM2.82051 8.97436L3.16452 8.28634C2.94796 8.17806 2.69306 8.17806 2.4765 8.28634L2.82051 8.97436ZM6.73075 1.3106C6.31941 1.41682 6.07206 1.83638 6.17828 2.24772C6.2845 2.65906 6.70406 2.90641 7.11541 2.80019L6.73075 1.3106ZM9.74359 0.769231C9.74359 0.344396 9.39919 0 8.97436 0C8.54952 0 8.20513 0.344396 8.20513 0.769231H9.74359ZM8.20513 13.0769V19.2308H9.74359V13.0769H8.20513ZM17.9487 10C17.9487 7.61985 17.0032 5.33719 15.3202 3.65417L14.2323 4.74203C15.6268 6.13653 16.4103 8.02788 16.4103 10H17.9487ZM15.3202 3.65417C13.6372 1.97115 11.3545 1.02564 8.97436 1.02564V2.5641C10.9465 2.5641 12.8378 3.34753 14.2323 4.74203L15.3202 3.65417ZM2.62853 3.65417C0.945511 5.33719 0 7.61985 0 10H1.53846C1.53846 8.02788 2.32188 6.13653 3.71639 4.74203L2.62853 3.65417ZM6.57907 9.66238L8.63035 10.688L9.31837 9.31198L7.26709 8.28634L6.57907 9.66238ZM9.31837 10.688L11.3697 9.66238L10.6816 8.28634L8.63035 9.31198L9.31837 10.688ZM10.6816 9.66238L12.7329 10.688L13.4209 9.31198L11.3697 8.28634L10.6816 9.66238ZM13.4209 10.688L15.4722 9.66238L14.7842 8.28634L12.7329 9.31198L13.4209 10.688ZM14.7842 9.66238L16.8355 10.688L17.5235 9.31198L15.4722 8.28634L14.7842 9.66238ZM5.21581 10.688L7.26709 9.66238L6.57907 8.28634L4.52778 9.31198L5.21581 10.688ZM1.11324 10.688L3.16452 9.66238L2.4765 8.28634L0.425221 9.31198L1.11324 10.688ZM2.4765 9.66238L4.52778 10.688L5.21581 9.31198L3.16452 8.28634L2.4765 9.66238ZM8.97436 1.02564C8.21098 1.02564 7.45757 1.12291 6.73075 1.3106L7.11541 2.80019C7.71757 2.6447 8.34177 2.5641 8.97436 2.5641V1.02564ZM8.20513 0.769231V1.79487H9.74359V0.769231H8.20513Z" fill="#EBEBF5" fill-opacity="0.3"/>
</svg>
