<svg width="77" height="60" viewBox="0 0 77 60" fill="none" xmlns="http://www.w3.org/2000/svg">
<g clip-path="url(#clip0_3_202)">
<path d="M77 37.0705C77 37.0705 68.2893 27.406 57.3178 28.8154C54.1926 29.2181 51.0674 30.4933 46.0138 34.453C40.6943 38.6141 32.6485 46.1309 25.5337 58.8154C25.2012 59.0839 24.0043 59.8222 22.2755 59.6879C20.8126 59.5537 19.8152 58.8154 19.4162 58.4799C25.6002 46.198 23.6054 34.9899 19.1503 32.8423C14.9611 30.8289 6.18394 35.3926 0 45.3926C1.66235 28.7483 3.79016 10.2248 29.4568 1.5C59.9775 -8.90269 76.6675 31.0973 77 37.0705Z" fill="black"/>
<path d="M7.5 42C9.16667 39.1667 13.9 34.6 19.5 39C17.8333 38 13.1 37.2 7.5 42Z" fill="black" fill-opacity="0.4"/>
<path d="M42.5 51C45.6667 50 53.1 49.6 57.5 56" stroke="black" stroke-width="1.5"/>
</g>
<defs>
<clipPath id="clip0_3_202">
<rect width="77" height="60" fill="white"/>
</clipPath>
</defs>
</svg>
