<svg width="176" height="134" viewBox="0 0 176 134" fill="none" xmlns="http://www.w3.org/2000/svg">
<path d="M176 133.953H0.00411101C0.00411101 133.953 -0.197332 90.9109 2.22001 72.5794C4.7045 54.2479 21.0215 20.0023 39.1516 10.1314C56.8116 0.529232 56.8788 -0.276549 64.5337 0.0591932C63.2579 0.126342 60.9077 0.864972 67.4211 7.24407C75.6803 15.3019 88.9757 24.7026 88.9757 24.7026C88.9757 24.7026 109.255 44.1085 119.931 31.6861C120.401 30.4774 120.871 29.0001 121.073 27.12C121.475 23.6283 120.67 20.7409 120.133 19.1293C122.281 20.0694 124.161 20.6737 125.504 21.0095C128.392 21.7481 129.869 22.0839 131.212 21.4124C132.756 20.6066 133.965 18.7264 134.167 18.3907C134.704 17.5849 134.637 17.3163 134.838 17.182C136.45 15.9062 148.335 23.4268 155.721 35.8493C164.518 50.6219 165.323 69.692 165.323 69.692L168.412 88.225L169.957 97.29L170.427 100.11L171.971 109.511L172.038 110.048L173.113 116.629L173.314 117.837L174.053 122.404L176 133.953Z" fill="#48A2F5"/>
</svg>
