<svg width="101" height="135" viewBox="0 0 101 135" fill="none" xmlns="http://www.w3.org/2000/svg">
<path opacity="0.4" d="M60.311 134.165L3.77346 116.622C1.06688 115.82 -0.537021 113.114 0.164686 110.507C10.7905 74.8206 21.4164 39.0335 32.0422 3.34672C32.7439 0.940868 35.3503 -0.462545 37.9566 0.138918L96.7997 13.4713C99.807 14.1731 101.611 16.9799 100.809 19.6865C89.4819 56.7767 78.0541 93.8669 66.7266 130.957C65.9246 133.664 63.0176 135.067 60.311 134.165Z" fill="#2DDA93"/>
<path d="M57.4039 51.965C57.4039 51.965 57.3037 51.163 57.1032 50.4613C56.9027 49.7596 56.7022 48.9577 56.7022 48.9577C56.8024 48.3562 57.0029 47.855 57.2034 47.2535C57.4039 46.652 57.7046 46.1508 57.9051 45.5494C57.9051 45.5494 58.2059 45.9503 58.4063 46.3513C58.7071 46.7523 58.9076 47.1533 58.9076 47.1533C58.9076 47.1533 58.7071 46.652 58.6068 46.0506C58.4064 45.5494 58.3061 44.9479 58.3061 44.9479C58.9076 43.8452 59.6093 42.8428 60.311 41.8403C60.311 41.8403 60.6117 42.2413 60.8122 42.5421C61.1129 42.943 61.3134 43.2438 61.3134 43.2438C61.3134 43.2438 61.1129 42.7425 61.0127 42.3416C60.8122 41.8403 60.6117 41.4394 60.6117 41.4394C61.4137 40.4369 62.2156 39.5347 63.0176 38.6325C63.0176 38.6325 63.218 38.9333 63.5188 39.1338C63.7193 39.4345 64.02 39.635 64.02 39.635C64.02 39.635 63.8195 39.234 63.7193 38.9333C63.5188 38.5323 63.4185 38.2316 63.4185 38.2316C64.8219 36.7279 66.1251 35.525 67.1276 34.6228C67.6288 34.1216 68.0298 33.8208 68.3305 33.5201C68.6312 33.3196 68.7315 33.1191 68.7315 33.1191C68.7315 33.1191 68.6312 33.5201 68.3305 34.1216C68.13 34.8233 67.729 35.7255 67.328 36.8282C66.4259 39.0335 65.2229 42.0408 63.7193 44.8477C63.0176 46.2511 62.2156 47.6545 61.4137 48.9577C60.6117 50.2608 59.8098 51.4637 59.1081 52.3659C58.4064 53.2681 57.6044 53.9699 57.1032 54.4711C56.8024 54.6716 56.602 54.872 56.5017 54.9723C56.3012 55.0725 56.3012 55.1728 56.3012 55.1728C56.4015 53.0677 56.4015 51.4638 56.602 49.9601C56.602 49.9601 56.8024 50.3611 57.1032 50.8623C57.2034 51.0628 57.3037 51.2633 57.4039 51.4638C57.4039 51.8647 57.4039 51.965 57.4039 51.965Z" fill="#56873D"/>
<path d="M60.1105 54.1703C60.1105 54.1703 60.311 54.1703 60.6117 54.0701C60.9124 54.0701 61.3134 53.9699 61.8146 53.8696C62.6166 53.6691 63.5188 53.4686 63.5188 53.4686C64.1202 52.9674 64.6215 52.4662 65.1227 51.965C65.6239 51.4638 66.0249 50.8623 66.3256 50.2608C66.3256 50.2608 65.8244 50.2608 65.4234 50.2608C64.9222 50.2608 64.5212 50.2608 64.5212 50.2608C64.5212 50.2608 65.1227 50.0604 65.7241 49.9601C66.3256 49.7596 66.9271 49.6594 66.9271 49.6594C67.6288 48.4564 68.13 47.1533 68.531 45.8501C68.531 45.8501 68.0298 45.8501 67.6288 45.8501C67.1276 45.8501 66.7266 45.8501 66.7266 45.8501C66.7266 45.8501 67.2278 45.6496 67.729 45.5494C68.2302 45.3489 68.7315 45.2486 68.7315 45.2486C69.1324 43.9455 69.3329 42.5421 69.4332 41.3391C69.4332 41.3391 69.0322 41.3391 68.7315 41.4394C68.3305 41.4394 68.0298 41.5396 68.0298 41.5396C68.0298 41.5396 68.4307 41.4394 68.7315 41.2389C69.1324 41.1386 69.4332 40.9382 69.4332 40.9382C69.6336 38.7328 69.4332 36.8282 69.3329 35.525C69.2327 34.8233 69.1324 34.3221 69.0322 33.9211C68.9319 33.5201 68.9319 33.3196 68.9319 33.3196C68.9319 33.3196 68.8317 33.7206 68.531 34.3221C68.3305 35.0238 67.9295 35.926 67.5285 37.0287C66.6263 39.234 65.4234 42.2413 63.9197 45.0482C63.218 46.4516 62.4161 47.855 61.6142 49.1582C60.8122 50.4613 60.0102 51.6643 59.3085 52.5664C58.6068 53.4686 57.8049 54.1703 57.3037 54.6716C57.0029 54.8721 56.8024 55.0725 56.7022 55.1728C56.5017 55.273 56.5017 55.3733 56.5017 55.3733C57.5042 55.674 58.5066 55.674 59.6093 55.4735C60.6117 55.273 61.6141 54.8721 62.4161 54.3708C62.4161 54.3708 61.9149 54.2706 61.4137 54.2706C61.1129 54.2706 60.9124 54.1703 60.7119 54.1703C60.2107 54.1703 60.1105 54.1703 60.1105 54.1703Z" fill="#669A41"/>
<path d="M52.6924 54.7718C52.6924 54.7718 52.6925 54.7718 52.5922 54.6716C52.492 54.5713 52.3917 54.5713 52.2915 54.4711C52.091 54.2706 51.69 54.0701 51.3893 53.8696C51.0885 53.6691 50.6876 53.4686 50.4871 53.2682C50.1864 53.1679 50.0861 53.0677 50.0861 53.0677C49.6851 52.5664 49.3844 51.965 48.9834 51.3635C48.5825 50.7621 48.1815 50.0603 47.8807 49.2584C47.8807 49.2584 48.382 49.3586 48.8832 49.4589C49.3844 49.5591 49.8856 49.6594 49.8856 49.6594C49.8856 49.6594 49.7854 49.5591 49.4846 49.4589C49.2842 49.3586 48.9834 49.1582 48.6827 49.0579C48.382 48.8574 48.0812 48.7572 47.8807 48.5567C47.6803 48.4564 47.4798 48.3562 47.4798 48.3562C46.7781 46.7523 46.2768 44.9479 45.9761 43.1435C45.9761 43.1435 46.4773 43.344 46.8783 43.4443C47.3795 43.6447 47.7805 43.745 47.7805 43.745C47.7805 43.745 47.2793 43.4443 46.7781 43.0433C46.2768 42.6423 45.7756 42.2413 45.7756 42.2413C45.5751 40.3367 45.5751 38.4321 45.8759 36.7279C45.8759 36.7279 45.9761 36.8282 46.0764 36.8282C46.1766 36.9284 46.3771 37.0287 46.5776 37.1289C46.7781 37.2291 46.8783 37.3294 47.0788 37.4296C47.179 37.5299 47.2793 37.5299 47.2793 37.5299C47.2793 37.5299 47.179 37.4296 47.0788 37.3294C46.9786 37.2291 46.7781 37.0287 46.6778 36.8282C46.3771 36.4272 46.0764 36.0262 46.0764 36.0262C46.3771 34.5226 46.8783 33.2194 47.4798 32.1167C48.0812 31.014 48.6827 30.1118 49.2842 29.5104C49.8856 28.8087 50.4871 28.4077 50.7878 28.2072C51.1888 27.9065 51.3893 27.8062 51.3893 27.8062C51.3893 27.8062 51.289 27.9065 51.1888 28.107C51.0885 28.3074 50.8881 28.6082 50.6876 29.0091C50.2866 29.8111 49.7854 31.014 49.4846 32.5177C49.1839 34.0213 49.0837 35.8257 49.2842 37.7304C49.4846 39.635 49.9859 41.6399 50.6876 43.5445C51.3893 45.4491 52.1912 47.3538 52.8929 49.1582C53.2939 50.0603 53.5946 50.8623 53.7951 51.7645C54.0959 52.5664 54.1961 53.3684 54.2964 54.1703C54.4968 55.674 54.2964 56.9772 53.9956 57.7791C53.8954 58.1801 53.6949 58.4808 53.5946 58.7816C53.4944 58.982 53.3941 59.0823 53.3941 59.0823C53.0934 57.9796 52.6924 57.0774 52.1912 56.2755C51.69 55.4735 51.1888 54.8721 50.7878 54.1703C50.7878 54.1703 50.8881 54.1703 51.0886 54.2706C51.289 54.3708 51.4895 54.3708 51.69 54.4711C52.1912 54.5713 52.6924 54.7718 52.6924 54.7718Z" fill="#56873D"/>
<path d="M56.1007 54.6716C56.1007 54.6716 56.1007 54.5714 56.201 54.5714C56.3012 54.4711 56.3012 54.3709 56.4015 54.1704C56.602 53.8696 56.8024 53.3684 57.0029 52.8672C57.2034 52.366 57.4039 51.8648 57.5042 51.4638C57.6044 51.0628 57.7046 50.8623 57.7046 50.8623C57.6044 49.8599 57.5042 48.9577 57.2034 48.0555C57.0029 47.1533 56.7022 46.3514 56.4015 45.6496C56.4015 45.6496 56.1007 46.0506 55.8 46.4516C55.4993 46.8526 55.1985 47.2535 55.1985 47.2535C55.1985 47.2535 55.1985 47.0531 55.2988 46.8526C55.399 46.6521 55.4993 46.2511 55.5995 45.9504C55.6998 45.6496 55.8 45.3489 55.9002 45.0482C56.0005 44.8477 56.0005 44.6472 56.0005 44.6472C55.399 43.1436 54.7976 41.8404 54.1961 40.5372C54.1961 40.5372 53.8954 40.8379 53.5947 41.2389C53.2939 41.5396 52.9932 41.9406 52.9932 41.9406C52.9932 41.9406 53.1937 41.4394 53.4944 40.9382C53.6949 40.437 53.9956 39.9357 53.9956 39.9357C53.3942 38.6326 52.7927 37.4297 52.3917 36.2267C52.3917 36.2267 52.2915 36.2267 52.1912 36.327C52.091 36.4272 51.8905 36.5275 51.7903 36.6277C51.5898 36.7279 51.4895 36.8282 51.3893 36.9284C51.289 37.0287 51.1888 37.0287 51.1888 37.0287C51.1888 37.0287 51.289 36.9284 51.3893 36.8282C51.4895 36.7279 51.5898 36.5275 51.7903 36.4272C52.091 36.1265 52.2915 35.8258 52.2915 35.8258C51.8905 34.8233 51.5898 33.8209 51.3893 32.8184C51.1888 31.9162 51.0886 31.014 51.0886 30.2121C51.0886 29.4101 51.0885 28.8087 51.1888 28.4077C51.289 28.0067 51.289 27.706 51.289 27.706C51.289 27.706 51.1888 27.8062 51.0886 28.0067C50.9883 28.2072 50.7878 28.508 50.5873 28.9089C50.1864 29.7109 49.6851 30.9138 49.3844 32.4175C49.0837 33.9211 48.9834 35.7255 49.1839 37.6301C49.3844 39.5348 49.8856 41.5397 50.5873 43.4443C51.289 45.3489 52.091 47.2536 52.7927 49.0579C53.1937 49.9601 53.4944 50.7621 53.6949 51.6643C53.9956 52.4662 54.0959 53.2682 54.1961 54.0701C54.3966 55.5738 54.1961 56.877 53.8954 57.6789C53.7951 58.0799 53.5946 58.3806 53.4944 58.6813C53.3942 58.8818 53.2939 58.9821 53.2939 58.9821C54.3966 58.6813 55.4993 57.8794 56.201 56.7767C56.9027 55.674 57.4039 54.3709 57.6044 52.9675C57.6044 52.9675 57.5041 53.0677 57.4039 53.2682C57.3037 53.4687 57.1032 53.6692 56.9027 53.8696C56.5017 54.2706 56.1007 54.6716 56.1007 54.6716Z" fill="#486D33"/>
<path d="M54.7976 58.2803C54.7976 58.2803 54.7976 57.4784 54.8978 56.6764C54.8978 56.2755 54.9981 55.8745 54.9981 55.5738C54.9981 55.273 55.0983 55.0725 55.0983 55.0725C55.9003 53.9698 56.9027 53.0677 58.1056 52.2657C58.1056 52.2657 58.1056 52.7669 58.1056 53.1679C58.1056 53.6691 58.1056 54.0701 58.1056 54.0701C58.1056 54.0701 58.2059 53.4686 58.4063 52.9674C58.5066 52.6667 58.6068 52.3659 58.6068 52.1655C58.7071 51.965 58.7071 51.7645 58.7071 51.7645C59.0078 51.564 59.3085 51.4638 59.6093 51.2633C59.91 51.163 60.2107 50.9625 60.6117 50.8623C61.2132 50.6618 61.9149 50.4613 62.6166 50.3611C62.6166 50.3611 62.5163 50.762 62.5163 51.2633C62.4161 51.6642 62.4161 52.1655 62.4161 52.1655C62.4161 52.1655 62.6166 51.6642 62.8171 51.2633C63.0176 50.762 63.218 50.3611 63.218 50.3611C63.9198 50.2608 64.5212 50.1606 65.2229 50.1606C65.5237 50.1606 65.8244 50.1606 66.2254 50.1606C66.5261 50.1606 66.8268 50.1606 67.1276 50.2608C67.1276 50.2608 67.0273 50.5616 66.9271 50.9625C66.8268 51.2633 66.7266 51.6642 66.7266 51.6642C66.7266 51.6642 66.9271 51.3635 67.1276 50.9625C67.3281 50.6618 67.5285 50.2608 67.5285 50.2608C67.6288 50.2608 67.8293 50.2608 67.9295 50.2608C68.0297 50.2608 68.2302 50.2608 68.3305 50.3611C68.6312 50.3611 68.8317 50.4613 69.0322 50.4613C69.2327 50.5616 69.5334 50.5616 69.7339 50.6618C69.9344 50.762 70.1349 50.762 70.4356 50.8623C71.2375 51.0628 72.0395 51.4638 72.5407 51.6642C72.8415 51.7645 73.0419 51.965 73.3427 52.0652C73.5432 52.1655 73.7436 52.2657 73.9441 52.3659C74.2449 52.5664 74.4454 52.6667 74.4454 52.6667C74.4454 52.6667 74.0444 52.6667 73.4429 52.6667C73.2424 52.6667 73.1422 52.6667 72.9417 52.6667C72.7412 52.6667 72.5407 52.6667 72.3402 52.6667C72.1398 52.6667 71.839 52.6667 71.6385 52.7669C71.438 52.7669 71.1373 52.8672 70.8366 52.8672C69.7339 52.9674 68.531 53.2681 67.2278 53.5689C65.9246 53.9698 64.5212 54.3708 63.218 54.9723C61.9149 55.5738 60.6117 56.2755 59.4088 56.9772C58.3061 57.6789 57.2034 58.4808 56.4015 59.1825C56.201 59.383 56.0005 59.4833 55.8 59.6837C55.5995 59.8842 55.399 59.9845 55.2988 60.185C55.0983 60.2852 54.9981 60.4857 54.7976 60.5859C54.6973 60.6862 54.4968 60.8867 54.3966 60.9869C53.9956 61.4881 53.6949 61.6886 53.6949 61.6886C53.5946 61.1874 53.5946 60.6862 53.4944 60.2852C53.4944 60.0847 53.4944 59.784 53.4944 59.5835C53.4944 59.383 53.4944 59.0823 53.5946 58.8818C53.6949 58.3806 53.7951 57.9796 53.8954 57.5786C53.9956 57.1777 54.1961 56.7767 54.3966 56.3757C54.3966 56.3757 54.4968 56.8769 54.5971 57.3781C54.6973 57.7791 54.7976 58.2803 54.7976 58.2803Z" fill="#56873D"/>
<path d="M57.1032 60.8867C57.1032 60.8867 57.8049 60.9869 58.6068 61.1874C59.0078 61.2876 59.3085 61.3879 59.6093 61.4881C59.91 61.5884 60.0102 61.5884 60.0102 61.5884C61.0127 61.3879 62.0151 60.9869 62.9173 60.5859C62.9173 60.5859 62.6166 60.2852 62.2156 60.0847C61.9149 59.784 61.5139 59.5835 61.5139 59.5835C61.5139 59.5835 62.0151 59.784 62.5163 59.9845C62.7168 60.0847 63.0176 60.185 63.218 60.2852C63.4185 60.3855 63.5188 60.3854 63.5188 60.3854C63.7193 60.2852 63.9198 60.185 64.1202 59.9845C64.3207 59.8842 64.5212 59.784 64.7217 59.5835C65.1227 59.2828 65.5237 59.0823 66.0249 58.7815C66.0249 58.7815 65.7241 58.4808 65.4234 58.1801C65.1227 57.8794 64.822 57.5786 64.822 57.5786C64.822 57.5786 65.2229 57.7791 65.6239 58.0798C66.0249 58.2803 66.4258 58.5811 66.4258 58.5811C66.8268 58.2803 67.2278 57.9796 67.729 57.6789C67.9295 57.5786 68.13 57.3781 68.3305 57.1776C68.531 57.0774 68.7315 56.8769 68.9319 56.7767C68.9319 56.7767 68.7315 56.4759 68.531 56.1752C68.3305 55.8745 68.13 55.5738 68.13 55.5738C68.13 55.5738 68.4307 55.7742 68.7315 55.9747C69.0322 56.1752 69.3329 56.3757 69.3329 56.3757C70.7363 55.3733 72.0395 54.3708 73.0419 53.7694C73.3427 53.5689 73.5432 53.4686 73.7436 53.2681C73.9441 53.1679 74.1446 52.9674 74.2449 52.9674C74.5456 52.7669 74.7461 52.6667 74.7461 52.6667C74.7461 52.6667 74.3451 52.6667 73.7436 52.6667C73.5432 52.6667 73.4429 52.6667 73.2424 52.6667C73.0419 52.6667 72.8415 52.6667 72.641 52.6667C72.4405 52.6667 72.1397 52.6667 71.9393 52.7669C71.7388 52.7669 71.438 52.8672 71.1373 52.8672C70.0346 52.9674 68.8317 53.2681 67.5285 53.5689C66.2254 53.9698 64.8219 54.3708 63.5188 54.9723C62.2156 55.5738 60.9124 56.2755 59.7095 56.9772C58.6068 57.6789 57.5041 58.4808 56.7022 59.1825C56.5017 59.383 56.3012 59.4833 56.1007 59.6837C55.9003 59.8842 55.6998 59.9845 55.5995 60.185C55.399 60.2852 55.2988 60.4857 55.0983 60.5859C54.9981 60.6862 54.7976 60.8867 54.6973 60.9869C54.2963 61.4881 53.9956 61.6886 53.9956 61.6886C54.4968 61.7889 54.998 61.7889 55.399 61.7889C55.5995 61.7889 55.9003 61.7889 56.1007 61.7889C56.3012 61.7889 56.5017 61.7889 56.8024 61.7889C57.2034 61.7889 57.6044 61.7889 58.0054 61.7889C58.4063 61.7889 58.8073 61.6886 59.1081 61.6886C59.1081 61.6886 58.7071 61.4881 58.2059 61.1874C57.5041 61.0872 57.1032 60.8867 57.1032 60.8867Z" fill="#486D33"/>
<path d="M51.4895 55.273C51.4895 55.273 51.3893 55.0726 51.1888 54.6716C50.9883 54.3708 50.7878 53.8696 50.4871 53.3684C50.2866 52.8672 49.9859 52.366 49.8856 52.0652C49.6851 51.6643 49.5849 51.4638 49.5849 51.4638C49.4846 50.4613 49.5849 49.3587 49.6851 48.256C49.7854 47.1533 49.9859 46.1509 50.1863 45.1484C50.1863 45.1484 50.4871 45.5494 50.7878 46.0506C50.9883 46.2511 51.0885 46.4516 51.1888 46.6521C51.289 46.8526 51.3893 46.9528 51.3893 46.9528C51.3893 46.9528 51.289 46.7523 51.1888 46.4516C51.0885 46.1509 50.9883 45.8501 50.888 45.4491C50.7878 45.0482 50.6876 44.7474 50.5873 44.4467C50.4871 44.146 50.4871 43.9455 50.4871 43.9455C51.0885 41.8404 51.8905 39.9357 52.7927 38.1313C52.7927 38.1313 53.0934 38.5323 53.2939 39.0335C53.5946 39.4345 53.7951 39.9357 53.7951 39.9357C53.7951 39.9357 53.6949 39.234 53.4944 38.6326C53.3941 37.9309 53.1937 37.3294 53.1937 37.3294C54.1961 35.525 55.2988 33.9211 56.4015 32.4174L57.1032 33.8209C57.1032 33.8209 57.0029 33.3196 56.9027 32.8184C56.8024 32.3172 56.7022 31.816 56.7022 31.816C57.7046 30.6131 58.6068 29.5104 59.509 28.5079C60.0102 28.0067 60.4112 27.5055 60.9124 27.1045C61.3134 26.7035 61.8146 26.3026 62.2156 26.0018C63.0176 25.4004 63.7193 24.9994 64.2205 24.7989C64.421 24.6987 64.6215 24.5984 64.8219 24.5984C64.9222 24.5984 65.0224 24.4982 65.0224 24.4982C65.0224 24.4982 64.9222 24.5984 64.7217 24.7989C64.6215 24.8992 64.5212 24.9994 64.3207 25.1999C64.2205 25.4004 64.02 25.5006 63.8195 25.7011C63.1178 26.5031 62.2156 27.8062 61.4136 29.4101C61.0127 30.2121 60.6117 31.1143 60.1105 32.0165C59.7095 32.9187 59.2083 33.9211 58.7071 35.0238C57.8049 37.1289 56.9027 39.3343 56.1007 41.6399C55.2988 43.9455 54.5971 46.2511 54.0959 48.4565C53.5946 50.6618 53.2939 52.7669 53.1937 54.5713C53.0934 56.3757 53.0934 57.8794 53.0934 58.9821C53.0934 59.2828 53.0934 59.4833 53.0934 59.6838C53.0934 59.8843 53.0934 60.0847 53.0934 60.185C53.0934 60.4857 53.0934 60.586 53.0934 60.586C51.289 58.7816 50.1863 56.2755 49.6851 53.6691C49.6851 53.6691 50.0861 54.0701 50.4871 54.4711C51.0885 54.8721 51.4895 55.273 51.4895 55.273Z" fill="#94C93D"/>
<path d="M54.8978 55.4735C54.8978 55.4735 55.0983 55.273 55.2988 54.9723C55.4993 54.6716 55.9002 54.2706 56.201 53.9699C56.5017 53.5689 56.9027 53.2681 57.1032 52.9674C57.4039 52.6667 57.5042 52.5664 57.5042 52.5664C58.2059 50.9625 58.7071 49.2584 59.3085 47.5542C59.3085 47.5542 58.8073 47.7547 58.4063 47.9552C58.2059 48.0555 57.9051 48.1557 57.8049 48.2559C57.6044 48.3562 57.5042 48.3562 57.5042 48.3562C57.5042 48.3562 57.6044 48.256 57.8049 48.0555C58.0054 47.855 58.3061 47.6545 58.6068 47.454C58.9076 47.2535 59.2083 47.053 59.4088 46.8525C59.6093 46.652 59.7095 46.5518 59.7095 46.5518C60.2107 44.8477 60.712 43.0433 61.1129 41.2389C61.1129 41.2389 60.6117 41.3391 60.2107 41.5396C59.7095 41.6399 59.2083 41.8403 59.2083 41.8403C59.2083 41.8403 59.7095 41.4394 60.2107 41.1386C60.7119 40.8379 61.3134 40.4369 61.3134 40.4369C61.7144 38.6325 62.1154 36.8282 62.5163 35.124L60.9124 35.525C60.9124 35.525 61.3134 35.2243 61.7144 35.0238C62.1154 34.8233 62.5163 34.5225 62.5163 34.5225C62.8171 33.0189 63.0176 31.6155 63.218 30.4125C63.4185 29.2096 63.619 28.2072 63.8195 27.305C64.02 26.4028 64.3207 25.8013 64.5212 25.3001C64.6215 25.0996 64.7217 24.8991 64.822 24.7989C64.9222 24.6987 64.9222 24.5984 64.9222 24.5984C64.9222 24.5984 64.822 24.6986 64.6215 24.8991C64.5212 24.9994 64.421 25.0996 64.2205 25.3001C64.1202 25.5006 63.9198 25.6008 63.7193 25.8013C63.0176 26.6033 62.1154 27.9065 61.3134 29.5104C60.9124 30.3123 60.5115 31.2145 60.0102 32.1167C59.6093 33.0189 59.1081 34.0213 58.6068 35.124C57.7046 37.2291 56.8024 39.4345 56.0005 41.7401C55.1985 44.0457 54.4968 46.3513 53.9956 48.5567C53.4944 50.762 53.1937 52.8672 53.0934 54.6716C52.9932 56.4759 52.9932 57.9796 52.9932 59.0823C52.9932 59.383 52.9932 59.5835 52.9932 59.784C52.9932 59.9845 52.9932 60.185 52.9932 60.2852C52.9932 60.5859 52.9932 60.6862 52.9932 60.6862C54.4968 58.5811 55.5995 56.4759 56.5017 54.3708C56.5017 54.3708 56.0005 54.6716 55.5995 54.9723C55.399 55.1728 54.8978 55.4735 54.8978 55.4735Z" fill="#70B744"/>
<path d="M49.3844 60.4857C49.3844 60.4857 49.1839 60.3855 48.9834 60.2852C48.6827 60.185 48.382 59.9845 48.0812 59.8842C47.7805 59.784 47.3795 59.6838 47.0788 59.5835C46.7781 59.4833 46.6778 59.4833 46.6778 59.4833C45.8759 58.7816 45.2744 57.9796 44.5727 57.1777C44.5727 57.1777 44.9737 57.0774 45.4749 56.9772C45.6754 56.9772 45.8759 56.8769 46.0764 56.8769C46.2768 56.8769 46.3771 56.8769 46.3771 56.8769C46.3771 56.8769 45.8759 56.7767 45.2744 56.7767C44.9737 56.7767 44.7732 56.7767 44.5727 56.7767C44.3722 56.7767 44.272 56.7767 44.272 56.7767C43.6705 55.9747 42.9688 55.0725 42.3673 54.0701C42.3673 54.0701 42.7683 53.8696 43.1693 53.7694C43.5703 53.6691 43.9712 53.4686 43.9712 53.4686C43.9712 53.4686 43.47 53.4686 42.9688 53.5689C42.7683 53.5689 42.4676 53.5689 42.2671 53.6691C42.0666 53.6691 41.9664 53.6691 41.9664 53.6691C41.2647 52.6667 40.6632 51.6642 39.9615 50.7621C39.9615 50.7621 40.2622 50.5616 40.5629 50.4613C40.8637 50.2608 41.1644 50.1606 41.1644 50.1606C41.1644 50.1606 40.7634 50.2608 40.3624 50.2608C39.9615 50.3611 39.5605 50.3611 39.5605 50.3611C38.4578 48.6569 37.3551 47.053 36.6534 45.8501C35.9517 44.6472 35.5508 43.8452 35.5508 43.8452C35.5508 43.8452 35.9517 44.0457 36.5532 44.4467C37.1547 44.8477 38.0569 45.3489 39.0593 46.0506C41.1644 47.454 43.871 49.3586 46.1766 51.8647C47.2793 53.0677 48.382 54.3708 49.1839 55.7742C49.9859 57.0774 50.5873 58.4808 50.8881 59.6838C51.1888 60.8867 51.289 61.9894 51.1888 62.6911C51.1888 63.092 51.0886 63.2925 51.0886 63.493C51.0886 63.6935 50.9883 63.7938 50.9883 63.7938C50.3868 62.9918 49.6851 62.2901 49.0837 61.7889C48.4822 61.2877 47.8807 60.7864 47.3795 60.2852C47.3795 60.2852 47.8807 60.2852 48.382 60.3855C48.8832 60.3855 49.3844 60.4857 49.3844 60.4857Z" fill="#56873D"/>
<path d="M52.7927 59.784C52.7927 59.784 52.8929 59.5835 53.0934 59.2828C53.1937 58.9821 53.3942 58.5811 53.5946 58.1801C53.7951 57.7792 53.8954 57.2779 53.9956 56.9772C54.0959 56.7767 54.0959 56.6765 54.0959 56.5762C54.0959 56.476 54.0959 56.3757 54.0959 56.3757C53.8954 54.7718 53.1937 53.1679 52.3917 51.7645C52.3917 51.7645 52.1912 52.2657 51.9907 52.6667C51.8905 52.8672 51.7902 53.0677 51.69 53.2682C51.5898 53.4687 51.5898 53.5689 51.5898 53.5689C51.5898 53.5689 51.69 52.9674 51.7903 52.2657C51.7903 51.965 51.8905 51.564 51.8905 51.3635C51.8905 51.1631 51.8905 50.9626 51.8905 50.9626C50.8881 49.6594 49.6851 48.5567 48.4822 47.6545C48.4822 47.6545 48.382 48.1557 48.2817 48.5567C48.1815 49.0579 48.0812 49.4589 48.0812 49.4589C48.0812 49.4589 48.0812 48.8574 47.981 48.3562C47.981 48.0555 47.981 47.7548 47.8807 47.5543C47.8807 47.3538 47.8807 47.2535 47.8807 47.2535C46.5776 46.4516 45.2744 45.7499 43.9712 45.3489C43.9712 45.3489 43.9712 45.7499 43.871 46.0506C43.871 46.4516 43.7707 46.7523 43.7707 46.7523C43.7707 46.7523 43.6705 46.3514 43.6705 45.9504C43.5703 45.5494 43.5703 45.1484 43.5703 45.1484C41.3649 44.4467 39.4603 44.146 38.0569 43.9455C36.6534 43.8453 35.7512 43.745 35.7512 43.745C35.7512 43.745 36.1522 43.9455 36.7537 44.3465C37.3551 44.7475 38.2573 45.2487 39.2598 45.9504C41.3649 47.3538 44.0715 49.2584 46.3771 51.7645C47.4798 52.9674 48.5824 54.2706 49.3844 55.674C50.1863 56.9772 50.7878 58.3806 51.0886 59.5835C51.3893 60.7865 51.4895 61.8891 51.3893 62.5909C51.3893 62.9918 51.289 63.1923 51.289 63.3928C51.289 63.5933 51.1888 63.6935 51.1888 63.6935C51.69 63.493 52.091 63.0921 52.492 62.6911C52.8929 62.2901 53.1937 61.8891 53.3941 61.3879C53.8954 60.3855 54.1961 59.2828 54.1961 58.1801C54.1961 58.1801 53.8954 58.5811 53.4944 58.9821C53.0934 59.3831 52.7927 59.784 52.7927 59.784Z" fill="#669A41"/>
<path d="M65.1227 61.2877L39.9615 53.5689L35.7512 75.0211L56.602 81.4367L65.1227 61.2877Z" fill="#7D5426"/>
<path d="M65.1227 64.3952L38.1571 56.1752L38.7586 53.2682L66.2254 61.5884L65.1227 64.3952Z" fill="#956235"/>
</svg>
