<svg width="33" height="39" viewBox="0 0 33 39" fill="none" xmlns="http://www.w3.org/2000/svg">
<path d="M17.2351 26.0911C17.0778 26.1112 16.9338 26 16.9152 25.8425C16.0631 18.6203 17.9769 11.1312 22.1977 5.21101C22.2924 5.07832 22.4777 5.05062 22.608 5.1484V5.1484C22.7359 5.24428 22.7628 5.42502 22.6701 5.55516C18.5334 11.3591 16.6475 18.6908 17.4849 25.7693C17.5035 25.9269 17.3925 26.0709 17.2351 26.0911V26.0911Z" fill="#456C0A"/>
<path d="M17.382 26.187C17.3775 26.3481 17.2436 26.475 17.0825 26.4709V26.4709C16.9208 26.4669 16.7931 26.3324 16.7976 26.1708C16.9844 19.4535 17.1405 12.5316 15.153 5.97878C14.9442 5.27108 14.6893 4.83974 14.3664 4.64819C14.2303 4.56741 14.1235 4.42167 14.1515 4.26584V4.26584C14.18 4.10699 14.335 3.9993 14.4839 4.06175C15.1909 4.35849 15.5132 5.17932 15.7083 5.80345C17.7248 12.4438 17.5688 19.425 17.382 26.187Z" fill="#456C0A"/>
<path d="M18.5488 25.6456C18.3921 25.6697 18.245 25.5626 18.2236 25.4055C17.6941 21.515 18.882 17.4191 21.4067 14.4094C21.6402 14.1293 21.9109 13.8398 22.2339 13.6379C22.369 13.5534 22.5401 13.6208 22.6048 13.7664V13.7664C22.6695 13.9121 22.6031 14.0815 22.4725 14.1728C22.2562 14.324 22.0584 14.5333 21.8451 14.7893C19.4231 17.6672 18.2792 21.5731 18.7925 25.3149C18.8143 25.4732 18.7067 25.6213 18.5488 25.6456V25.6456Z" fill="#456C0A"/>
<path d="M17.0093 26.7564C17.0094 26.9172 16.8787 27.0481 16.7179 27.0481V27.0481C16.5559 27.0481 16.425 26.9155 16.4248 26.7535C16.4185 20.9173 15.3656 16.3066 13.2244 12.6853C12.8445 12.0278 12.3477 11.2973 11.661 10.7713C11.0683 10.3299 10.3776 10.1171 9.75806 10.1892C9.5963 10.2081 9.43361 10.1186 9.3894 9.9619V9.9619C9.34485 9.80396 9.43732 9.63823 9.59966 9.61425C10.3802 9.49895 11.2577 9.74434 11.9971 10.2891C12.7715 10.8589 13.2975 11.6626 13.7066 12.3639C15.9349 16.1162 17.0034 20.8162 17.0093 26.7564Z" fill="#456C0A"/>
<path d="M17.9159 26.617C17.754 26.6211 17.6199 26.4931 17.6167 26.3312C17.5444 22.5829 17.394 18.0198 15.2048 14.4766C15.1212 14.3413 15.1574 14.163 15.2896 14.0749V14.0749C15.4236 13.9855 15.6052 14.0226 15.69 14.1595C17.9633 17.8302 18.1146 22.4969 18.2003 26.3193C18.2039 26.4801 18.0767 26.613 17.9159 26.617V26.617Z" fill="#456C0A"/>
<path d="M26.3955 27.5223C26.6421 25.1434 24.776 23.0738 22.3843 23.0738H12.0902C9.6971 23.0738 7.8305 25.1458 8.07943 27.526L8.90157 35.3868C9.11635 37.4404 10.8476 39 12.9124 39H21.5694C23.6356 39 25.3675 37.4383 25.5806 35.3831L26.3955 27.5223Z" fill="#7C5327"/>
<path d="M27.6241 24.2717C27.5785 24.8493 27.0965 25.2947 26.5171 25.2947H7.96113C7.38452 25.2947 6.90385 24.8534 6.85472 24.2789V24.2789C6.79928 23.6306 7.31051 23.0738 7.96113 23.0738H26.5171C27.1648 23.0738 27.6751 23.6259 27.6241 24.2717V24.2717Z" fill="#936134"/>
<path d="M26.9589 16.5134C26.3415 13.2011 23.4959 11.876 22.4506 11.4955C22.1967 11.4031 21.9433 11.3068 21.6938 11.203C20.6261 10.7585 19.3814 10.5677 18.4405 11.1949C17.8123 11.6186 17.447 12.3346 17.1255 13.0213C16.8041 13.708 16.5119 14.424 16.4973 15.1837C16.4876 15.6846 16.624 16.2045 16.9107 16.6012C17.1471 16.9284 17.6001 16.7605 17.7955 16.4072V16.4072C18.1619 15.7447 18.7586 16.3872 18.5222 17.1065C18.504 17.1618 18.4865 17.2174 18.4698 17.2731C18.3967 17.5215 18.3383 17.7845 18.4113 18.0329C18.4698 18.2375 18.6159 18.3982 18.762 18.5443C19.5514 19.3469 20.5066 19.9717 21.553 20.3975C21.7475 20.4766 21.9641 20.3799 22.0566 20.1914V20.1914C22.2474 19.8021 22.8245 20.1027 22.832 20.5362C22.833 20.593 22.8352 20.6499 22.8385 20.7068C22.8531 20.8675 22.8677 21.0282 22.9262 21.1743C23.0138 21.3643 23.1746 21.5104 23.3499 21.6273C24.4019 22.3578 25.79 22.2556 27.0611 22.2994C28.867 22.3726 30.6627 22.8127 32.3036 23.5855C32.9405 23.8855 32.9432 23.8839 32.3772 23.4651C30.7859 22.2878 27.5384 19.5643 26.9589 16.5134Z" fill="#548611"/>
<path d="M32.5988 19.8447C32.5112 19.4502 32.3358 19.0849 32.1459 18.7342C31.6155 17.7089 30.9521 16.7501 30.1708 15.9038C30.0804 15.8059 30.1982 15.6413 30.3147 15.7059V15.7059C30.4072 15.7572 30.5161 15.6697 30.4776 15.5712C29.4564 12.9614 27.0053 10.9443 24.2412 10.4789V10.4789C22.7998 10.2346 23.19 11.6824 24.3737 12.5405C25.4579 13.3264 26.5899 14.5855 26.9589 16.528C27.4187 18.9481 29.5572 21.1622 31.2192 22.562C31.8473 23.091 32.7874 22.4181 32.7449 21.598V21.598C32.7011 20.999 32.7303 20.4145 32.5988 19.8447Z" fill="#456C0A"/>
<path d="M4.16552 13.8688C4.13058 11.0503 6.21226 9.46655 7.05845 8.93988C7.28742 8.79738 7.51457 8.65385 7.73969 8.50535C8.54988 7.97093 9.53334 7.62357 10.4045 7.99509C11.0035 8.24348 11.4273 8.78409 11.8072 9.31009C12.187 9.83609 12.5523 10.3767 12.6838 11.0196C12.7685 11.4243 12.7441 11.8715 12.5832 12.2479C12.4427 12.5764 12.0216 12.5139 11.79 12.2418V12.2418C11.363 11.74 10.976 12.3796 11.2993 12.9537C11.3282 13.005 11.3562 13.0568 11.3834 13.109C11.4857 13.2989 11.588 13.5181 11.5588 13.7373C11.5442 13.9126 11.4419 14.0733 11.3396 14.2194C10.8106 15.0262 10.1139 15.7133 9.30384 16.2373C9.16087 16.3298 8.9737 16.2864 8.87047 16.151V16.151C8.65377 15.8668 8.21521 16.2151 8.27864 16.5668C8.28683 16.6122 8.29411 16.6577 8.30048 16.7033C8.31509 16.8348 8.3297 16.981 8.30048 17.1125C8.25664 17.2878 8.13975 17.4339 8.02286 17.5654C7.26308 18.3544 6.07958 18.5005 5.02758 18.7489C3.2304 19.1872 1.53551 20.0493 0.13284 21.2766C0.147451 21.262 4.19474 17.4047 4.16552 13.8688Z" fill="#456C0A"/>
<path d="M0.00124947 17.5946C0.0158606 17.2586 0.0889164 16.9079 0.191195 16.5865C0.461137 15.6475 0.853639 14.7369 1.36113 13.8999C1.41952 13.8037 1.28689 13.6841 1.19997 13.7557V13.7557C1.13212 13.8116 1.03234 13.7553 1.04758 13.6687C1.46261 11.3118 3.17552 9.20742 5.40738 8.34576V8.34576C6.57407 7.90825 6.49034 9.18154 5.64446 10.0965C4.86747 10.9368 4.1299 12.1816 4.15082 13.8688C4.17686 15.9692 2.75923 18.1831 1.60393 19.6345C1.16587 20.1848 0.276054 19.7813 0.176583 19.085V19.085C0.103528 18.5882 -0.0133617 18.0914 0.00124947 17.5946Z" fill="#548611"/>
<path d="M12.5085 6.38786C12.2537 3.61993 14.1561 1.89849 14.9561 1.30358C15.1787 1.13803 15.3994 0.971161 15.6185 0.800973C16.369 0.217936 17.3139 -0.189592 18.1922 0.0904538C18.8059 0.29501 19.2735 0.777178 19.6826 1.27396C20.0917 1.75613 20.5008 2.26752 20.6907 2.88118C20.8152 3.28343 20.8205 3.73589 20.6817 4.12336C20.5666 4.44493 20.1612 4.41787 19.9201 4.1759V4.1759C19.471 3.72512 19.1313 4.38796 19.4841 4.91748C19.5119 4.95917 19.5391 5.00122 19.5657 5.04364C19.6826 5.23358 19.7995 5.42353 19.7848 5.64269C19.7848 5.81803 19.6972 5.97875 19.6095 6.13947C19.1463 6.97319 18.5154 7.71101 17.76 8.29867C17.6279 8.40144 17.4399 8.37306 17.3283 8.24832V8.24832C17.095 7.98753 16.6827 8.37274 16.7743 8.71044C16.7848 8.74941 16.7948 8.78858 16.8042 8.82793C16.8334 8.95943 16.8626 9.09093 16.8334 9.22243C16.8042 9.39776 16.7019 9.55848 16.5996 9.68998C15.9129 10.5228 14.7586 10.7566 13.7358 11.0927C13.2518 11.2513 12.7781 11.4427 12.3189 11.6648C10.3378 12.6228 10.3435 12.6665 11.3752 10.7228C12.0791 9.39648 12.6424 7.8364 12.5085 6.38786Z" fill="#66990C"/>
<path d="M8.70949 10.3913C8.69488 10.0552 8.75332 9.71919 8.81177 9.38313C9.00083 8.42599 9.32369 7.49752 9.76487 6.62091C9.81759 6.51616 9.67962 6.40908 9.59507 6.49033V6.49033C9.52897 6.55385 9.42093 6.50418 9.42951 6.41291C9.65019 4.0663 11.1679 1.86535 13.312 0.835603V0.835603C14.4274 0.302148 14.4437 1.57367 13.6806 2.5465C12.9823 3.43674 12.3551 4.723 12.5084 6.38784C12.6993 8.46208 11.4778 10.758 10.4544 12.2804C10.0662 12.8578 9.15712 12.5306 9.00171 11.8524V11.8524C8.88482 11.3556 8.7241 10.8881 8.70949 10.3913Z" fill="#548611"/>
<path d="M13.9696 17.8137C13.101 15.1733 14.573 13.0745 15.221 12.3174C15.4014 12.1067 15.5798 11.8952 15.7553 11.6804C16.3592 10.9417 17.1875 10.3313 18.1045 10.4205C18.7474 10.4789 19.3026 10.8588 19.8286 11.2387C20.34 11.6186 20.8514 12.0277 21.1729 12.583C21.3827 12.9454 21.4929 13.3827 21.4466 13.7889C21.4074 14.1319 21.0013 14.1946 20.7092 14.0106V14.0106C20.1624 13.6662 19.9831 14.3841 20.4568 14.8236C20.4963 14.8603 20.5353 14.8975 20.5738 14.9353C20.7345 15.0815 20.8806 15.2568 20.9245 15.476C20.9537 15.6513 20.9245 15.8266 20.866 16.002C20.6018 16.9135 20.1584 17.7772 19.5467 18.5068C19.4371 18.6375 19.2472 18.6526 19.1079 18.5541V18.5541C18.8141 18.3461 18.5003 18.8054 18.6657 19.1251C18.6839 19.1602 18.7013 19.1955 18.7182 19.231C18.7766 19.3479 18.8351 19.4794 18.8351 19.6109C18.8497 19.7862 18.7912 19.9616 18.7036 20.1223C18.2214 21.0866 17.1548 21.5688 16.2343 22.124C14.981 22.8667 13.8843 23.8583 13.0103 25.0182C12.5659 25.6079 12.5752 25.6155 12.8783 24.9421C13.5945 23.3511 14.7431 20.1972 13.9696 17.8137Z" fill="#93C91C"/>
<path d="M11.1496 22.5624C11.062 22.241 11.0327 21.8903 11.0327 21.5542C11.0091 20.5715 11.1197 19.5887 11.3492 18.6448C11.3762 18.5337 11.2196 18.4606 11.1593 18.5577V18.5577C11.1105 18.6364 10.989 18.6151 10.977 18.5233C10.6701 16.1766 11.6733 13.7098 13.5166 12.2323V12.2323C14.495 11.4741 14.7831 12.6909 14.2546 13.8101C13.7718 14.8324 13.447 16.2251 13.9696 17.8138C14.6205 19.7926 13.9362 22.3024 13.2733 24.0142C13.0214 24.6646 12.0606 24.5451 11.7487 23.9212V23.9212C11.5441 23.4683 11.2811 23.0446 11.1496 22.5624Z" fill="#71B70B"/>
<path d="M25.9652 6.31479C25.8054 3.88439 23.9438 2.6302 23.1357 2.19733C22.8947 2.06819 22.6529 1.93851 22.4126 1.80795C21.6729 1.40606 20.8048 1.18965 20.0769 1.56616C19.5655 1.82916 19.2294 2.32594 18.9226 2.82272C18.6304 3.30489 18.3382 3.81628 18.2651 4.38611C18.2182 4.7517 18.2676 5.14135 18.4325 5.45858C18.5787 5.73997 18.9469 5.65415 19.1339 5.39796V5.39796C19.4801 4.92334 19.8664 5.46251 19.6164 5.99413C19.5937 6.04221 19.5719 6.09066 19.5509 6.13945C19.4778 6.31479 19.4048 6.51934 19.434 6.70929C19.4632 6.87001 19.5509 7.00151 19.6532 7.1184C20.1647 7.78734 20.8293 8.33854 21.5625 8.75085C21.7017 8.82915 21.8757 8.77279 21.9621 8.63838V8.63838C22.1377 8.36493 22.5525 8.65276 22.515 8.97561C22.51 9.01888 22.5058 9.0622 22.5023 9.10552C22.4877 9.22241 22.4877 9.35391 22.5316 9.45619C22.5754 9.6023 22.6923 9.7338 22.8092 9.83608C23.5251 10.479 24.5771 10.5228 25.5269 10.6689V10.6689C27.5171 10.9916 27.8238 10.6015 26.8208 8.85243C26.3614 8.0514 26.0223 7.18309 25.9652 6.31479Z" fill="#93C91C"/>
<path d="M29.881 9.31008C29.8518 9.00324 29.7495 8.71102 29.6473 8.43341C29.3394 7.61638 28.926 6.83773 28.4148 6.12857C28.3563 6.04755 28.4659 5.93743 28.5472 5.99532V5.99532C28.6117 6.04116 28.6952 5.98191 28.6758 5.90526C28.1562 3.85328 26.4927 2.12959 24.4749 1.53694V1.53694C23.416 1.21681 23.5834 2.33803 24.3946 3.09023C25.1345 3.77636 25.8676 4.82264 25.9652 6.31479C26.0868 8.1642 27.488 10.0188 28.605 11.2193C29.0223 11.6678 29.7809 11.2509 29.8226 10.6397V10.6397C29.8518 10.1867 29.9249 9.74841 29.881 9.31008Z" fill="#71B70B"/>
</svg>
