<svg width="28" height="28" viewBox="0 0 28 28" fill="none" xmlns="http://www.w3.org/2000/svg">
<g filter="url(#filter0_d_3_1046)">
<path d="M19.2979 8.50541V5.33814C19.3063 3.90502 18.7339 2.52703 17.7121 1.52215C16.7242 0.538478 15.431 0 14.0615 0C14.0403 0 14.0148 0 13.9936 0C11.0723 0.00423998 8.69791 2.39559 8.69791 5.33814V8.50541C7.59551 8.63685 6.78992 9.56116 6.78992 10.6805V17.7952C6.78992 19.0036 7.75663 20 8.96503 20H19.035C20.2434 20 21.2101 19.0036 21.2101 17.7952V10.6805C21.2059 9.5654 20.4003 8.63685 19.2979 8.50541ZM9.54167 5.33814H9.54591C9.54591 2.86199 11.5429 0.835277 13.9979 0.835277H14.0021C15.1681 0.831037 16.2875 1.29319 17.1143 2.11575C17.975 2.96799 18.4541 4.12974 18.4456 5.33814V8.50965H17.5128V5.33814C17.5213 4.37566 17.1397 3.45135 16.4571 2.77295C15.8126 2.12847 14.9392 1.76383 14.0276 1.76383H14.0021C12.0517 1.76383 10.4745 3.36655 10.4745 5.3339V8.50965H9.54167V5.33814V5.33814ZM16.6691 5.33814V8.50965H11.3267V5.33814C11.3267 3.83718 12.5224 2.61607 14.0064 2.61607H14.0318C14.7187 2.61607 15.3801 2.89167 15.8677 3.37927C16.385 3.89654 16.6776 4.60462 16.6691 5.33814ZM20.4003 17.8079C20.4003 18.5499 19.7982 19.152 19.0562 19.152H8.98199C8.23999 19.152 7.63791 18.5499 7.63791 17.8079V10.7017C7.63791 9.95972 8.23999 9.35764 8.98199 9.35764H19.0562C19.7982 9.35764 20.4003 9.95972 20.4003 10.7017V17.8079Z" fill="#6A6F7D"/>
<path d="M15.4649 13.992C15.2784 13.3348 14.6805 12.8854 13.9979 12.8854C13.1541 12.8854 12.4673 13.568 12.4673 14.416C12.4673 15.0986 12.9167 15.6965 13.5739 15.883V17.0702C13.5739 17.3034 13.7647 17.4942 13.9979 17.4942C14.2311 17.4942 14.4219 17.3034 14.4219 17.0702V15.883C15.2317 15.6498 15.7024 14.8018 15.4649 13.992ZM13.9979 15.0944C13.6205 15.0944 13.3153 14.7891 13.3153 14.4118C13.3153 14.0344 13.6205 13.7291 13.9979 13.7291C14.3752 13.7291 14.6805 14.0344 14.6805 14.4118C14.6805 14.7891 14.3752 15.0944 13.9979 15.0944Z" fill="#6A6F7D"/>
</g>
<defs>
<filter id="filter0_d_3_1046" x="0" y="0" width="28" height="28" filterUnits="userSpaceOnUse" color-interpolation-filters="sRGB">
<feFlood flood-opacity="0" result="BackgroundImageFix"/>
<feColorMatrix in="SourceAlpha" type="matrix" values="0 0 0 0 0 0 0 0 0 0 0 0 0 0 0 0 0 0 127 0" result="hardAlpha"/>
<feOffset dy="4"/>
<feGaussianBlur stdDeviation="2"/>
<feComposite in2="hardAlpha" operator="out"/>
<feColorMatrix type="matrix" values="0 0 0 0 0 0 0 0 0 0 0 0 0 0 0 0 0 0 0.25 0"/>
<feBlend mode="normal" in2="BackgroundImageFix" result="effect1_dropShadow_3_1046"/>
<feBlend mode="normal" in="SourceGraphic" in2="effect1_dropShadow_3_1046" result="shape"/>
</filter>
</defs>
</svg>
