<svg width="16" height="20" viewBox="0 0 16 20" fill="none" xmlns="http://www.w3.org/2000/svg">
<path d="M7.94872 0.769231L8.38083 0.132837C8.11998 -0.044279 7.77746 -0.044279 7.51661 0.132837L7.94872 0.769231ZM15.8974 12.0513C15.8974 11.6264 15.553 11.2821 15.1282 11.2821C14.7034 11.2821 14.359 11.6264 14.359 12.0513H15.8974ZM12.9552 7.29308C13.1596 7.66554 13.6272 7.80182 13.9996 7.59748C14.3721 7.39313 14.5084 6.92554 14.304 6.55308L12.9552 7.29308ZM7.4359 15.3846C7.86073 15.3846 8.20513 15.0402 8.20513 14.6154C8.20513 14.1906 7.86073 13.8462 7.4359 13.8462V15.3846ZM5.64103 12.0513C5.64103 11.6264 5.29663 11.2821 4.87179 11.2821C4.44696 11.2821 4.10256 11.6264 4.10256 12.0513H5.64103ZM1.53846 12.0513C1.53846 8.87016 3.99482 4.38372 8.38083 1.40562L7.51661 0.132837C2.83949 3.30859 0 8.22055 0 12.0513H1.53846ZM14.359 12.0513C14.359 16.0879 11.1034 18.4615 7.94872 18.4615V20C11.8059 20 15.8974 17.0778 15.8974 12.0513H14.359ZM7.94872 18.4615C4.794 18.4615 1.53846 16.0879 1.53846 12.0513H0C0 17.0778 4.09158 20 7.94872 20V18.4615ZM7.51661 1.40562C9.93632 3.04861 11.7905 5.17016 12.9552 7.29308L14.304 6.55308C13.0216 4.21566 11.0009 1.91189 8.38083 0.132837L7.51661 1.40562ZM7.4359 13.8462C6.44462 13.8462 5.64103 13.0426 5.64103 12.0513H4.10256C4.10256 13.8922 5.59495 15.3846 7.4359 15.3846V13.8462Z" fill="#EBEBF5" fill-opacity="0.6"/>
</svg>
