<svg width="255" height="230" viewBox="0 0 255 230" fill="none" xmlns="http://www.w3.org/2000/svg">
<path d="M-6.07967e-06 101.638C-6.07967e-06 172.054 57.0837 229.138 127.5 229.138C197.916 229.138 255 172.054 255 101.638C255 31.2214 180.146 71.4286 109.73 71.4286C39.3137 71.4286 -6.07967e-06 31.2214 -6.07967e-06 101.638Z" fill="#2DDA93" fill-opacity="0.2"/>
<mask id="mask0_3_747" style="mask-type:alpha" maskUnits="userSpaceOnUse" x="0" y="-26" width="255" height="255">
<circle r="127.5" transform="matrix(-1 0 0 1 127.5 101.5)" fill="#C4C4C4"/>
</mask>
<g mask="url(#mask0_3_747)">
<path d="M54.9153 177.115C58.1364 151.99 51.4463 125.825 36.5299 105.358L34.9441 106.547C49.5632 126.618 56.1542 152.238 52.9826 176.868L54.9153 177.115Z" fill="#456C0A"/>
<path d="M53.4782 178.305L55.4604 178.255C54.8162 155.162 54.172 131.325 61.0107 108.777C61.9027 105.754 63.0425 104.218 64.5788 103.921L64.2319 101.988C61.1594 102.583 59.8709 105.804 59.1276 108.183C52.1897 131.028 52.8339 155.063 53.4782 178.305Z" fill="#456C0A"/>
<path d="M50.4552 175.629C52.5861 162.149 48.572 147.828 39.8006 137.371C38.8095 136.182 37.6201 134.943 36.1334 134.299L35.3405 136.083C36.4308 136.578 37.3228 137.47 38.3139 138.66C46.7385 148.67 50.6039 162.348 48.5225 175.331L50.4552 175.629Z" fill="#456C0A"/>
<path d="M54.7171 180.237H56.6993C56.6002 159.969 60.1683 144.012 67.5522 131.524C68.8406 129.294 70.5255 126.816 72.8547 125.032C75.1838 123.297 77.959 122.603 80.2881 123.248L80.8333 121.315C77.959 120.522 74.5396 121.315 71.7149 123.396C69.0884 125.329 67.3044 128.055 65.9168 130.433C58.2356 143.368 54.618 159.622 54.7171 180.237Z" fill="#456C0A"/>
<path d="M52.6357 178.8C52.8835 165.618 53.2304 149.215 61.3576 136.777L59.7223 135.686C51.2977 148.571 50.9508 165.321 50.6535 178.751L52.6357 178.8Z" fill="#456C0A"/>
<path d="M21.3161 166.758H86.5818L80.9323 220.774H26.916L21.3161 166.758Z" fill="#7C5327"/>
<path d="M18.987 174.291H88.8614L89.5056 166.758H18.3923L18.987 174.291Z" fill="#936134"/>
<path d="M20.9692 144.507C23.5461 130.681 37.5706 127.064 37.5706 127.064C41.4359 125.18 46.2925 124.09 49.8605 126.469C51.9914 127.906 53.2304 130.334 54.3206 132.663C55.4108 134.993 56.402 137.421 56.4515 139.998C56.5011 142.575 55.4108 145.3 53.1312 146.49C51.2481 141.484 47.0854 137.421 42.0802 135.637C45.6978 138.561 48.4234 142.624 49.7614 147.084C50.0092 147.927 50.2074 148.819 49.9596 149.661C49.7614 150.355 49.2658 150.9 48.7703 151.396C45.7969 154.419 42.1297 156.698 38.1157 158.135C37.075 155.608 35.4892 153.279 33.4574 151.396C34.5476 153.675 35.0927 156.203 34.9441 158.73C34.8945 159.275 34.845 159.82 34.6467 160.316C34.3494 160.96 33.8043 161.456 33.2096 161.852C29.6415 164.33 24.9337 163.983 20.6223 164.132C13.288 164.429 6.00319 166.51 -0.389578 170.177C-0.439134 170.177 18.3427 158.334 20.9692 144.507Z" fill="#548611"/>
<path d="M1.84041 155.806C2.13774 154.468 2.73242 153.229 3.37666 152.04C5.60669 147.728 8.53051 143.764 12.049 140.444C10.9092 141.038 9.81897 141.633 8.67918 142.277C11.9003 132.961 20.4736 125.676 30.1866 124.041C33.1104 123.545 37.0254 124.189 37.6201 127.113C37.6201 127.113 23.5956 130.731 20.9691 144.557C18.3427 158.383 -0.439178 170.227 -0.439178 170.227C0.601504 167.501 1.19618 164.627 1.34484 161.753C1.49351 159.721 1.3944 157.739 1.84041 155.806Z" fill="#456C0A"/>
<path d="M98.277 135.538C98.4256 123.545 87.2755 118.143 87.2755 118.143C84.3516 115.913 80.4862 114.179 77.1164 115.616C75.0846 116.458 73.6475 118.292 72.359 120.076C71.0705 121.86 69.8316 123.694 69.3856 125.874C68.9396 128.005 69.3856 130.483 71.0705 131.87C73.4493 128.005 77.612 125.279 82.1216 124.685C78.6031 126.518 75.6297 129.442 73.7961 132.961C73.4493 133.605 73.1024 134.348 73.2015 135.092C73.251 135.686 73.5979 136.231 73.9448 136.727C75.9271 139.75 78.6031 142.277 81.7252 144.111C83.0136 142.178 84.7481 140.493 86.7303 139.254C85.4419 140.939 84.5499 143.021 84.2525 145.152C84.203 145.598 84.1534 146.093 84.2525 146.539C84.4012 147.134 84.7976 147.629 85.1941 148.075C87.771 150.751 91.7851 151.247 95.3531 152.089C101.449 153.576 107.197 156.5 111.955 160.663C111.905 160.613 98.1779 147.53 98.277 135.538Z" fill="#456C0A"/>
<path d="M112.401 148.175C112.351 147.035 112.103 145.845 111.756 144.755C110.617 140.791 108.832 136.975 106.454 133.605C107.296 134.299 108.139 134.993 108.981 135.686C107.841 127.361 101.895 119.828 94.0647 116.805C91.686 115.913 88.3162 115.814 87.3251 118.143C87.3251 118.143 98.4752 123.545 98.3266 135.538C98.1779 147.53 111.905 160.613 111.905 160.613C111.509 158.185 111.459 155.658 111.806 153.229C112.054 151.544 112.45 149.859 112.401 148.175Z" fill="#548611"/>
<path d="M69.9804 110.165C71.0706 98.3209 60.5151 92.1263 60.5151 92.1263C57.8391 89.6981 54.1224 87.7158 50.703 88.806C48.6216 89.4998 47.0358 91.1352 45.6483 92.8201C44.2607 94.4555 42.8731 96.1899 42.2289 98.2713C41.5846 100.353 41.882 102.83 43.4182 104.317C46.0943 100.7 50.4057 98.3704 54.9153 98.0731C51.2977 99.6093 48.1261 102.285 46.0447 105.606C45.6483 106.25 45.2518 106.894 45.3014 107.637C45.3014 108.232 45.5987 108.777 45.896 109.322C47.6305 112.444 50.0588 115.17 52.9826 117.251C54.4197 115.418 56.2533 113.931 58.3347 112.841C56.8975 114.427 55.9064 116.359 55.4108 118.441C55.3117 118.887 55.2126 119.333 55.3117 119.779C55.4108 120.373 55.7577 120.919 56.1046 121.365C58.4338 124.189 62.3487 124.982 65.8177 126.122C71.7149 128.055 77.1661 131.424 81.4775 135.885C81.4279 135.934 68.8902 121.959 69.9804 110.165Z" fill="#66990C"/>
<path d="M82.8651 123.743C82.9147 122.603 82.7164 121.464 82.5182 120.324C81.7253 116.31 80.2386 112.444 78.1572 108.876C78.9502 109.62 79.6935 110.363 80.4864 111.106C80.0404 102.83 74.7874 94.951 67.2549 91.3334C64.9753 90.2432 61.655 89.8963 60.5152 92.1263C60.5152 92.1263 71.0707 98.3208 69.9805 110.165C68.8902 122.009 81.3784 135.984 81.3784 135.984C81.1802 133.555 81.3289 131.078 81.874 128.699C82.2704 127.014 82.8155 125.428 82.8651 123.743Z" fill="#548611"/>
<path d="M65.0248 148.918C68.7415 137.619 59.8213 129.244 59.8213 129.244C57.74 126.271 54.5684 123.495 51.0003 123.842C48.8198 124.041 46.9367 125.329 45.1527 126.618C43.4182 127.906 41.6837 129.294 40.5935 131.177C39.5033 133.06 39.2059 135.538 40.3953 137.322C43.8147 134.398 48.5225 133.06 52.9826 133.803C49.1172 134.497 45.45 136.38 42.6253 139.155C42.0802 139.651 41.5846 140.245 41.436 140.989C41.3368 141.584 41.4359 142.178 41.6342 142.773C42.6253 146.192 44.3598 149.413 46.788 152.04C48.5721 150.603 50.703 149.513 52.9826 148.918C51.2481 150.157 49.811 151.842 48.919 153.725C48.7207 154.121 48.5225 154.567 48.5225 155.013C48.4729 155.608 48.6712 156.203 48.9685 156.748C50.6039 160.018 54.2215 161.654 57.3435 163.537C62.6956 166.709 67.2052 171.218 70.4264 176.521C70.4264 176.62 61.3576 160.217 65.0248 148.918Z" fill="#93C91C"/>
<path d="M74.5891 165.024C74.8865 163.933 74.9856 162.744 74.9856 161.604C75.0847 157.491 74.49 153.378 73.3007 149.513C73.8953 150.405 74.49 151.297 75.0351 152.238C76.4723 144.012 73.0529 135.191 66.561 129.987C64.5787 128.451 61.4071 127.311 59.8213 129.244C59.8213 129.244 68.7415 137.619 65.0247 148.918C61.308 160.217 70.4264 176.62 70.4264 176.62C70.7733 174.192 71.4671 171.813 72.5573 169.632C73.2511 168.096 74.1431 166.659 74.5891 165.024Z" fill="#71B70B"/>
<path d="M24.3391 109.917C25.0329 99.3615 35.1919 95.3475 35.1919 95.3475C37.9175 93.5635 41.436 92.3245 44.3103 93.8112C46.0448 94.7032 47.1846 96.3882 48.2253 98.0731C49.2164 99.7084 50.2075 101.443 50.4553 103.376C50.7031 105.308 50.158 107.439 48.5721 108.529C46.7386 104.961 43.2201 102.285 39.3051 101.443C42.2785 103.326 44.7068 106.101 46.0943 109.322C46.3421 109.917 46.5899 110.611 46.4908 111.255C46.3917 111.8 46.0943 112.246 45.7474 112.643C43.8147 115.17 41.2378 117.202 38.4131 118.639C37.422 116.805 35.9848 115.22 34.2999 114.03C35.3406 115.616 35.9353 117.499 36.084 119.382C36.1335 119.779 36.1335 120.225 35.9848 120.572C35.8362 121.067 35.4397 121.513 35.0433 121.86C32.615 124.041 29.047 124.189 25.8258 124.685C20.3251 125.577 15.0721 127.757 10.6616 131.078C10.6616 131.028 23.6453 120.473 24.3391 109.917Z" fill="#93C91C"/>
<path d="M11.058 120.076C11.1571 119.035 11.504 118.044 11.8509 117.103C13.1394 113.683 14.973 110.462 17.3021 107.637C16.5092 108.183 15.7163 108.728 14.9729 109.273C16.5092 101.988 22.3073 95.7935 29.3938 93.7121C31.5248 93.0679 34.5477 93.2166 35.1919 95.3475C35.1919 95.3475 25.0329 99.312 24.3391 109.917C23.6453 120.473 10.6616 131.078 10.6616 131.078C11.2067 128.947 11.4049 126.766 11.2562 124.586C11.1571 123.049 10.9093 121.563 11.058 120.076Z" fill="#71B70B"/>
<path d="M92.9615 106.418L135.463 81.4116L169.436 139.153L126.934 164.159L92.9615 106.418Z" fill="#5F3916"/>
<path d="M97.9009 108.426L135.195 86.4834L164.842 136.873L127.548 158.815L97.9009 108.426Z" fill="#F2F2F3"/>
<path d="M111.826 104.272L134.905 90.6935C135.024 90.6235 135.177 90.6632 135.247 90.7822C135.317 90.9012 135.277 91.0544 135.158 91.1245L112.079 104.703C111.96 104.773 111.807 104.733 111.737 104.614C111.667 104.495 111.707 104.342 111.826 104.272Z" fill="#191919"/>
<g clip-path="url(#clip0_3_747)">
<path d="M167.102 22.2753C166.993 22.7471 166.832 23.2606 166.717 23.7802C166.015 26.6525 165.258 30.3431 165.185 30.9164C165.149 31.5914 163.274 36.0631 163.373 37.9687C163.472 39.8743 164.414 41.6436 163.767 42.9211C163.12 44.1986 159.252 51.3798 158.672 52.1317C158.092 52.8836 157.157 55.2897 159.975 56.0339C162.746 56.772 162.191 56.168 162.573 56.9928C162.573 56.9928 162.011 57.2132 161.371 57.6663C160.57 58.2448 159.721 59.2054 159.737 60.6152C159.799 63.1957 161.967 63.7121 161.727 64.4585C161.487 65.2048 161.276 66.8771 161.562 67.6899C161.889 68.5564 161.421 70.7301 160.995 71.7928C160.57 72.8556 155.421 87.4959 164.989 88.2185C174.552 88.9889 180.497 82.6526 181.819 85.6349C181.891 85.8381 182.01 86.0473 182.123 86.3043C183.392 89.3284 184.796 93.9714 183.748 95.7323C182.635 97.6304 181.212 98.5187 181.212 98.5187L201.479 99.0873L218.959 82.8972C218.959 82.8972 216.215 75.0269 217.927 67.2338C218.149 66.2425 218.419 65.2572 218.779 64.3318C218.779 64.3318 227.946 41.3159 226.563 29.9767C225.179 18.6376 216.209 7.40858 201.087 4.91694C185.966 2.42531 163.304 11.214 161.067 13.5528C158.842 15.796 167.858 19.3613 167.102 22.2753Z" fill="#F7B492"/>
<path d="M167.102 22.2743C166.994 22.7461 166.832 23.2596 166.718 23.7791C170.249 23.1085 173.533 23.6203 173.533 23.6203C173.533 23.6203 177.332 24.294 178.972 26.2971C180.606 28.3479 179.11 35.1975 181.724 36.7897C184.339 38.3818 182.553 38.302 183.614 44.5036C184.628 50.6992 179.326 53.8645 177.657 55.5469C175.989 57.2294 171.109 61.6615 170.35 61.9055C169.591 62.1495 166.688 62.4625 165.52 60.1792C164.775 58.7746 162.781 58.0374 161.365 57.7131C160.564 58.2915 159.715 59.2522 159.731 60.6619C159.793 63.2425 161.961 63.7588 161.721 64.5052C161.481 65.2516 161.27 66.9239 161.556 67.7366C161.884 68.6031 161.415 70.7768 160.989 71.8396C160.564 72.9023 155.415 87.5426 164.983 88.2652C174.546 89.0357 180.491 82.6993 181.813 85.6816C181.885 85.8848 182.004 86.094 182.117 86.351C190.625 80.4838 192.914 69.2686 193.586 67.4118C194.323 65.4176 191.169 55.7966 191.561 52.6909C191.953 49.5853 194.282 45.365 198.589 45.0836C202.896 44.8022 205.359 48.3653 207.149 54.1736C208.149 57.4065 213.47 62.9324 217.939 67.1372C218.161 66.1459 218.431 65.1606 218.791 64.2352C218.791 64.2352 227.959 41.2192 226.575 29.8801C225.191 18.541 216.221 7.31197 201.1 4.82034C185.978 2.3287 163.316 11.1174 161.079 13.4562C158.843 15.795 167.858 19.3602 167.102 22.2743Z" fill="black"/>
<path d="M182.859 36.1551L181.793 35L183.392 35.4443C183.303 35.7108 183.214 36.0662 182.859 36.1551Z" fill="#2A2A3D"/>
<path d="M187.746 37.7544C187.834 38.0209 187.923 38.1986 187.746 38.4652C187.568 38.7317 187.39 38.8206 187.124 38.8206C187.124 38.8206 187.124 38.8206 187.035 38.8206C187.035 38.9983 186.857 39.2648 186.679 39.4425C186.591 39.5314 186.413 39.5314 186.324 39.5314C186.235 39.5314 186.235 39.5314 186.146 39.5314L182.859 36.155C183.125 36.0662 183.303 35.7996 183.392 35.4442L188.101 36.6882L188.279 36.777C188.279 36.9547 188.545 37.2213 188.456 37.4878C188.368 37.7544 188.101 37.8432 187.923 37.9321L187.746 37.7544Z" fill="#F8CEA0"/>
<path d="M214.578 51.615L216 52.4146C216 52.77 215.822 53.2143 215.733 53.5697L214.312 52.77C214.401 52.5035 214.578 52.1481 214.578 51.7927C214.578 51.7038 214.578 51.615 214.578 51.615Z" fill="#D72427"/>
<path d="M214.312 52.77L215.733 53.5697C215.645 53.7474 215.556 53.9251 215.467 54.1028C215.378 54.2805 215.2 54.4582 215.112 54.6359L213.69 53.8362C213.868 53.6585 213.956 53.4808 214.134 53.2143C214.134 53.0366 214.223 52.8589 214.312 52.77Z" fill="#D72427"/>
<path d="M213.69 53.7474L215.111 54.547C214.845 54.8136 214.578 55.0801 214.223 55.2578L212.801 54.4582C212.89 54.3693 212.979 54.2805 213.068 54.2805C213.334 54.1028 213.512 53.9251 213.69 53.7474Z" fill="#D72427"/>
<path d="M213.868 51.1707L214.578 51.615C214.578 51.7038 214.578 51.7038 214.578 51.7927C214.49 52.1481 214.401 52.4146 214.312 52.77L213.69 52.4146C213.779 52.2369 213.779 52.0592 213.868 51.8815C213.868 51.7038 213.868 51.3484 213.868 51.1707Z" fill="#EDECF1"/>
<path d="M213.068 53.392L213.69 53.7474C213.512 53.9251 213.335 54.1028 213.157 54.2805C213.068 54.3693 212.979 54.4582 212.89 54.4582L212.357 54.1916C212.535 54.0139 212.801 53.6585 213.068 53.392Z" fill="#EDECF1"/>
<path d="M213.601 52.3258L214.223 52.6812C214.134 52.8589 214.134 52.9477 214.045 53.1254C213.956 53.3031 213.779 53.5697 213.601 53.7474L212.979 53.392C213.068 53.3031 213.157 53.1254 213.246 53.0366C213.423 52.8589 213.512 52.5923 213.601 52.3258Z" fill="#EDECF1"/>
<path d="M187.035 38.7317C187.124 38.7317 187.124 38.7317 187.035 38.7317L213.068 53.392C212.89 53.6585 212.624 54.0139 212.268 54.1916L186.324 39.5314C186.413 39.5314 186.591 39.5314 186.679 39.4425C186.946 39.2648 187.124 38.9094 187.035 38.7317Z" fill="#F4D331"/>
<path d="M188.19 36.6882L213.868 51.1707C213.868 51.4373 213.868 51.7038 213.779 51.8815C213.69 52.0592 213.69 52.2369 213.601 52.4146L187.834 37.8432C188.012 37.7544 188.279 37.6655 188.368 37.399C188.456 37.1324 188.279 36.8659 188.19 36.6882Z" fill="#F4D331"/>
<path d="M187.834 37.7544L213.601 52.3258C213.512 52.5923 213.423 52.77 213.246 53.0366C213.157 53.1254 213.068 53.3031 212.979 53.392L187.124 38.7317C187.39 38.7317 187.657 38.6429 187.746 38.3763C187.923 38.1098 187.834 37.9321 187.746 37.6655L187.834 37.7544Z" fill="#2A2A3D"/>
<path d="M207.119 53.0198C207.864 56.5828 203.503 61.0144 201.007 63.6534C202.223 63.3061 206.76 58.3661 208.766 55.9846C208.54 55.6545 207.821 53.7511 207.119 53.0198Z" fill="black" fill-opacity="0.4"/>
<path d="M195.74 52.8695C196.851 51.2069 200.404 49.6125 202.041 49.023C194.83 49.0131 193.963 53.9672 194.431 56.4455C194.404 55.9462 194.628 54.5321 195.74 52.8695Z" fill="black" fill-opacity="0.4"/>
<path d="M195.5 46C198 44 204.4 45.3 206 50.5L195.5 46Z" fill="#F7B492"/>
<path d="M166 38.5C166 39.3284 165.328 40 164.5 40C163.672 40 163.5 39.3284 163.5 38.5C163.5 37.6716 163.171 37 164 37C164.828 37 166 37.6716 166 38.5Z" fill="black"/>
<path d="M165 32C166.5 31.6667 170.3 31.5 173.5 33.5" stroke="black" stroke-width="1.5"/>
</g>
<path d="M121.956 100.824L135.999 92.5622C136.118 92.4922 136.271 92.5319 136.341 92.6509C136.411 92.7699 136.371 92.9231 136.252 92.9931L122.21 101.255C122.091 101.325 121.937 101.285 121.867 101.166C121.797 101.047 121.837 100.894 121.956 100.824Z" fill="#191919"/>
<path d="M103.554 109.202L105.449 108.087C105.687 107.947 105.994 108.026 106.134 108.264L107.249 110.159C107.389 110.397 107.309 110.703 107.071 110.844L105.176 111.958C104.938 112.098 104.632 112.019 104.492 111.781L103.377 109.886C103.237 109.648 103.316 109.342 103.554 109.202Z" stroke="black" stroke-width="0.5" stroke-miterlimit="10"/>
<path d="M114.698 109.15L137.777 95.5718C137.896 95.5018 138.049 95.5415 138.119 95.6605C138.189 95.7795 138.149 95.9327 138.03 96.0027L114.951 109.581C114.832 109.651 114.679 109.612 114.609 109.493C114.539 109.374 114.579 109.22 114.698 109.15Z" fill="#191919"/>
<path d="M124.783 105.626L138.826 97.3638C138.945 97.2938 139.098 97.3335 139.168 97.4525C139.238 97.5716 139.198 97.7248 139.079 97.7948L125.036 106.057C124.917 106.127 124.764 106.087 124.694 105.968C124.624 105.849 124.664 105.696 124.783 105.626Z" fill="#191919"/>
<path d="M106.381 114.003L108.276 112.888C108.514 112.748 108.821 112.828 108.961 113.066L110.075 114.961C110.216 115.199 110.136 115.505 109.898 115.645L108.003 116.76C107.765 116.9 107.459 116.821 107.319 116.583L106.204 114.688C106.064 114.45 106.143 114.143 106.381 114.003Z" stroke="black" stroke-width="0.5" stroke-miterlimit="10"/>
<path d="M118.21 115.113L141.289 101.534C141.408 101.464 141.561 101.504 141.631 101.623C141.701 101.742 141.662 101.895 141.543 101.965L118.464 115.544C118.345 115.614 118.191 115.574 118.121 115.455C118.051 115.336 118.091 115.183 118.21 115.113Z" fill="#191919"/>
<path d="M128.341 111.665L142.383 103.403C142.502 103.333 142.655 103.372 142.725 103.491C142.795 103.61 142.756 103.764 142.637 103.834L128.594 112.096C128.475 112.166 128.322 112.126 128.252 112.007C128.182 111.888 128.221 111.735 128.341 111.665Z" fill="#191919"/>
<path d="M109.939 120.042L111.834 118.927C112.072 118.787 112.378 118.867 112.518 119.105L113.633 121C113.773 121.238 113.694 121.544 113.456 121.684L111.561 122.799C111.323 122.939 111.016 122.86 110.876 122.622L109.761 120.727C109.621 120.489 109.701 120.182 109.939 120.042Z" stroke="black" stroke-width="0.5" stroke-miterlimit="10"/>
<path d="M121.617 120.871L144.696 107.293C144.815 107.223 144.968 107.263 145.038 107.382C145.108 107.501 145.068 107.654 144.949 107.724L121.87 121.302C121.751 121.372 121.598 121.333 121.528 121.214C121.458 121.095 121.498 120.941 121.617 120.871Z" fill="#191919"/>
<path d="M131.747 117.423L145.789 109.161C145.908 109.091 146.062 109.131 146.132 109.25C146.202 109.369 146.162 109.522 146.043 109.592L132 117.854C131.881 117.924 131.728 117.885 131.658 117.766C131.588 117.647 131.628 117.494 131.747 117.423Z" fill="#191919"/>
<path d="M113.3 125.724L115.195 124.609C115.433 124.469 115.739 124.549 115.88 124.787L116.994 126.682C117.134 126.92 117.055 127.226 116.817 127.366L114.922 128.481C114.684 128.621 114.378 128.542 114.238 128.304L113.123 126.409C112.983 126.171 113.062 125.864 113.3 125.724Z" stroke="black" stroke-width="0.5" stroke-miterlimit="10"/>
<path d="M125.26 126.979L148.339 113.4C148.458 113.33 148.611 113.37 148.681 113.489C148.751 113.608 148.712 113.761 148.593 113.831L125.514 127.41C125.395 127.48 125.241 127.44 125.171 127.321C125.101 127.202 125.141 127.049 125.26 126.979Z" fill="#191919"/>
<path d="M135.345 123.454L149.388 115.192C149.507 115.122 149.66 115.162 149.73 115.281C149.8 115.4 149.76 115.553 149.641 115.623L135.599 123.885C135.48 123.955 135.326 123.915 135.256 123.796C135.186 123.677 135.226 123.524 135.345 123.454Z" fill="#191919"/>
<path d="M116.944 131.831L118.839 130.717C119.077 130.577 119.383 130.656 119.523 130.894L120.638 132.789C120.778 133.027 120.699 133.333 120.461 133.473L118.566 134.588C118.328 134.728 118.021 134.649 117.881 134.411L116.766 132.516C116.626 132.278 116.706 131.971 116.944 131.831Z" stroke="black" stroke-width="0.5" stroke-miterlimit="10"/>
<path d="M129.747 134.705L152.827 121.127C152.946 121.057 153.099 121.096 153.169 121.215C153.239 121.334 153.199 121.488 153.08 121.558L130.001 135.136C129.882 135.206 129.729 135.167 129.659 135.048C129.589 134.929 129.628 134.775 129.747 134.705Z" fill="#191919"/>
<path d="M139.13 130.438L153.604 121.922L154.144 122.841L139.671 131.357L139.13 130.438Z" fill="#191919"/>
<path d="M121.431 139.558L123.326 138.443C123.564 138.303 123.87 138.383 124.01 138.621L125.125 140.516C125.265 140.754 125.186 141.06 124.948 141.2L123.053 142.315C122.815 142.455 122.508 142.376 122.368 142.138L121.254 140.243C121.113 140.005 121.193 139.698 121.431 139.558Z" stroke="black" stroke-width="0.5" stroke-miterlimit="10"/>
<path d="M134.044 141.91L157.123 128.331C157.242 128.261 157.395 128.301 157.465 128.42C157.535 128.539 157.496 128.692 157.377 128.762L134.298 142.341C134.179 142.411 134.025 142.371 133.955 142.252C133.885 142.133 133.925 141.98 134.044 141.91Z" fill="#191919"/>
<path d="M143.959 138.588L158.432 130.073L158.973 130.992L144.499 139.507L143.959 138.588Z" fill="#191919"/>
<path d="M125.728 146.762L127.623 145.648C127.861 145.508 128.167 145.587 128.307 145.825L129.422 147.72C129.562 147.958 129.483 148.264 129.245 148.404L127.35 149.519C127.112 149.659 126.805 149.58 126.665 149.342L125.55 147.447C125.41 147.209 125.49 146.903 125.728 146.762Z" stroke="black" stroke-width="0.5" stroke-miterlimit="10"/>
<path d="M103.162 109.514L105.597 111.111C105.731 111.199 105.909 111.102 105.907 110.942L105.868 107.901L105.99 105.267" stroke="black" stroke-width="0.5" stroke-miterlimit="10"/>
<path d="M118.798 91.1742L121.286 95.5279L112.312 100.859L109.735 96.5052L108.669 97.1272L112.045 102.902L123.063 96.5052L119.686 90.6411L118.798 91.1742Z" fill="#B3B4B4"/>
<path d="M96.6742 257.679C93.1202 284.779 94.3641 291.176 96.4077 291.709C100.85 292.864 114.178 266.031 128.571 241.509C129.904 239.287 133.014 234.045 138.523 228.181C140.033 226.582 141.188 225.516 141.455 225.249C145.364 221.517 151.139 212.632 159.847 190.775L158.159 186.066L129.46 167.141L128.394 166.43C117.821 196.817 107.247 227.204 96.6742 257.679Z" fill="url(#paint0_linear_3_747)"/>
<path d="M126.794 171.228C130.793 174.516 136.212 178.425 143.143 181.801C148.829 184.556 154.16 186.333 158.514 187.488C158.869 189.265 159.136 191.131 159.491 192.908C161.89 207.923 162.334 222.051 161.624 235.2C174.862 237.422 190.5 239.199 208.27 239.199C223.463 239.199 237.057 238.044 248.874 236.267C249.941 216.364 251.096 196.462 252.162 176.559C255.805 136.31 252.606 105.479 245.32 94.3728C239.901 86.1098 232.97 83.3554 232.97 83.3554C227.195 81.0453 221.597 81.7561 218.488 82.378C209.336 82.5557 201.873 83.4443 196.542 84.3328C185.524 86.0209 175.751 87.6202 164.644 93.3066C158.514 96.4164 153.449 99.0819 148.563 104.413C141.277 112.498 140.566 120.406 136.124 138.443C134.169 146.261 131.237 157.545 126.794 171.228Z" fill="#48A2F5"/>
<path opacity="0.2" d="M172.819 137.021C172.819 137.021 164.111 184.556 163.223 186.155C163.045 186.688 162.867 187.132 162.69 187.666C162.245 187.754 161.712 187.754 161.179 187.754C160.202 187.754 159.313 187.666 158.514 187.577C159.225 191.042 160.113 195.662 160.557 200.016C161.268 206.591 161.357 209.256 161.357 209.256C161.357 210.145 161.357 210.411 161.446 210.411C161.89 210.322 164.467 194.685 172.819 137.021Z" fill="black"/>
</g>
<defs>
<linearGradient id="paint0_linear_3_747" x1="159.771" y1="229.077" x2="31.6244" y2="229.077" gradientUnits="userSpaceOnUse">
<stop stop-color="#FFA279"/>
<stop offset="0.3514" stop-color="#F7B390"/>
<stop offset="0.992608" stop-color="#F8BC9C"/>
</linearGradient>
<clipPath id="clip0_3_747">
<rect width="68" height="95.4986" fill="white" transform="matrix(-0.992124 -0.12526 -0.12526 0.992124 230 8.51766)"/>
</clipPath>
</defs>
</svg>
