<svg width="12" height="17" viewBox="0 0 12 17" fill="none" xmlns="http://www.w3.org/2000/svg">
<path d="M5.89929 0C2.64638 0 0 2.64677 0 5.89976C0 9.03104 5.35252 16.3468 5.58043 16.6566L5.79313 16.9461C5.818 16.9801 5.85761 17 5.89929 17C5.9416 17 5.98095 16.9801 6.00609 16.9461L6.21866 16.6566C6.44669 16.3468 11.7991 9.03104 11.7991 5.89976C11.7991 2.64677 9.15227 0 5.89929 0ZM5.89929 3.78648C7.06481 3.78648 8.01257 4.73428 8.01257 5.89976C8.01257 7.06464 7.06477 8.01304 5.89929 8.01304C4.73445 8.01304 3.786 7.06464 3.786 5.89976C3.786 4.73428 4.7344 3.78648 5.89929 3.78648Z" fill="white"/>
</svg>
