<svg width="10" height="18" viewBox="0 0 10 18" fill="none" xmlns="http://www.w3.org/2000/svg">
<path fill-rule="evenodd" clip-rule="evenodd" d="M4.88571 0C6.29911 0 7.4449 1.13651 7.4449 2.53846V9.02523C8.83965 9.87758 9.77143 11.4068 9.77143 13.1538C9.77143 15.8303 7.58402 18 4.88571 18C2.18741 18 0 15.8303 0 13.1538C0 11.4068 0.931778 9.87758 2.32653 9.02523V2.53846C2.32653 1.13651 3.47232 0 4.88571 0ZM3.4898 9.72993C2.1256 10.2777 1.16327 11.6043 1.16327 13.1538C1.16327 15.1931 2.82986 16.8462 4.88571 16.8462C6.94157 16.8462 8.60816 15.1931 8.60816 13.1538C8.60816 11.6043 7.64583 10.2777 6.28163 9.72993V2.53846C6.28163 1.77376 5.65666 1.15385 4.88571 1.15385C4.11477 1.15385 3.4898 1.77376 3.4898 2.53846V9.72993Z" fill="#EBEBF5" fill-opacity="0.3"/>
<path d="M7.97143 13.1143C7.97143 14.8185 6.58991 16.2 4.88571 16.2C3.18152 16.2 1.8 14.8185 1.8 13.1143C1.8 11.4101 3.18152 10.0286 4.88571 10.0286C6.58991 10.0286 7.97143 11.4101 7.97143 13.1143Z" fill="#00A4EF"/>
<path d="M5.65714 8.48571C5.65714 8.05967 5.31176 7.71429 4.88571 7.71429C4.45967 7.71429 4.11429 8.05967 4.11429 8.48571V12.0857C4.11429 12.5118 4.45967 12.8571 4.88571 12.8571C5.31176 12.8571 5.65714 12.5118 5.65714 12.0857V8.48571Z" fill="#00A4EF"/>
</svg>
