<svg width="20" height="14" viewBox="0 0 20 14" fill="none" xmlns="http://www.w3.org/2000/svg">
<path d="M1.75781 0H18.2422C19.2114 0 20 0.788555 20 1.75781V11.9446C20 12.9139 19.2114 13.7024 18.2422 13.7024H1.75781C0.788555 13.7024 0 12.9139 0 11.9446V1.75781C0 0.788555 0.788555 0 1.75781 0ZM1.98723 1.17188L2.22184 1.36723L9.30258 7.26336C9.70672 7.59984 10.2934 7.59984 10.6974 7.26336L17.7782 1.36723L18.0128 1.17188H1.98723ZM18.8281 2.01789L13.0589 6.82191L18.8281 10.6615V2.01789ZM1.75781 12.5305H18.2422C18.5253 12.5305 18.7621 12.3287 18.8164 12.0614L12.1193 7.6043L11.4473 8.16391C11.028 8.51305 10.5139 8.68762 9.99996 8.68762C9.48598 8.68762 8.97199 8.51305 8.55266 8.16391L7.88062 7.6043L1.18359 12.0613C1.23789 12.3287 1.47469 12.5305 1.75781 12.5305ZM1.17188 10.6615L6.94109 6.82195L1.17188 2.01789V10.6615Z" fill="#6A6F7D"/>
</svg>
