<svg width="25" height="25" viewBox="0 0 25 25" fill="none" xmlns="http://www.w3.org/2000/svg">
<path d="M3.125 21.875H25V25H0V0H3.125V21.875ZM7.03125 20.3125C6.71445 20.3131 6.4008 20.2495 6.10927 20.1255C5.81773 20.0015 5.55436 19.8197 5.33507 19.5911C5.11578 19.3625 4.94512 19.0917 4.83339 18.7953C4.72167 18.4988 4.67121 18.1828 4.68506 17.8663C4.69891 17.5498 4.77678 17.2394 4.91396 16.9538C5.05115 16.6683 5.24481 16.4135 5.48323 16.2049C5.72166 15.9963 5.9999 15.8381 6.30115 15.7401C6.6024 15.642 6.9204 15.6061 7.23594 15.6344L9.75469 11.4359C9.52438 11.0822 9.39385 10.6729 9.37689 10.2512C9.35993 9.82947 9.45717 9.41099 9.65834 9.03995C9.8595 8.66891 10.1571 8.35907 10.5198 8.14316C10.8824 7.92725 11.2967 7.81327 11.7188 7.81327C12.1408 7.81327 12.5551 7.92725 12.9177 8.14316C13.2804 8.35907 13.578 8.66891 13.7792 9.03995C13.9803 9.41099 14.0776 9.82947 14.0606 10.2512C14.0436 10.6729 13.9131 11.0822 13.6828 11.4359L16.2016 15.6344C16.3211 15.6236 16.4413 15.6226 16.5609 15.6312L20.7203 8.35313C20.4214 7.91529 20.2798 7.38906 20.3185 6.86035C20.3573 6.33164 20.5741 5.83168 20.9337 5.4421C21.2932 5.05253 21.7742 4.79635 22.2981 4.71539C22.822 4.63444 23.3579 4.73349 23.8182 4.99638C24.2786 5.25927 24.6362 5.67046 24.8328 6.16282C25.0293 6.65518 25.0531 7.19962 24.9003 7.70725C24.7475 8.21488 24.4271 8.65571 23.9914 8.95776C23.5557 9.25981 23.0305 9.40524 22.5016 9.37031L18.3422 16.6484C18.5812 16.9989 18.7205 17.4077 18.7454 17.8312C18.7703 18.2547 18.6798 18.677 18.4836 19.0531C18.2873 19.4292 17.9926 19.745 17.631 19.9667C17.2694 20.1885 16.8543 20.308 16.4301 20.3124C16.0059 20.3168 15.5885 20.206 15.2223 19.9918C14.8562 19.7776 14.555 19.4681 14.3509 19.0961C14.1469 18.7242 14.0476 18.3039 14.0637 17.88C14.0797 17.4561 14.2106 17.0445 14.4422 16.6891L11.9234 12.4906C11.7873 12.5032 11.6502 12.5032 11.5141 12.4906L8.99531 16.6891C9.22583 17.0428 9.35652 17.4522 9.37359 17.874C9.39065 18.2959 9.29346 18.7145 9.09227 19.0856C8.89108 19.4568 8.59337 19.7667 8.23059 19.9827C7.86781 20.1986 7.45344 20.3126 7.03125 20.3125V20.3125Z" fill="white"/>
</svg>
