<svg width="18" height="19" viewBox="0 0 18 19" fill="none" xmlns="http://www.w3.org/2000/svg">
<path d="M11.2973 14.1216C11.2973 14.547 11.6422 14.8919 12.0676 14.8919C12.493 14.8919 12.8378 14.547 12.8378 14.1216H11.2973ZM11.1651 11.943L11.7098 11.3983L11.7098 11.3983L11.1651 11.943ZM5.90541 18.2297V19C6.33082 19 6.67568 18.6551 6.67568 18.2297H5.90541ZM0.770275 18.2297H4.46874e-06C4.65238e-06 18.6551 0.344866 19 0.770275 19V18.2297ZM0.77027 7.95946L0.263044 7.37977C0.0958836 7.52604 -1.22431e-07 7.73734 0 7.95946L0.77027 7.95946ZM5.38561 4.94455C5.70576 4.66442 5.7382 4.17779 5.45807 3.85764C5.17794 3.53749 4.69131 3.50504 4.37115 3.78518L5.38561 4.94455ZM17.2027 7.95946L17.973 7.95946C17.973 7.73734 17.8771 7.52604 17.7099 7.37977L17.2027 7.95946ZM9.49371 0.190583C9.17356 -0.0895506 8.68693 -0.0571089 8.4068 0.263044C8.12667 0.583196 8.15911 1.06982 8.47926 1.34996L9.49371 0.190583ZM17.2027 18.2297V19C17.407 19 17.6029 18.9188 17.7474 18.7744C17.8918 18.6299 17.973 18.434 17.973 18.2297H17.2027ZM12.0676 17.4595C11.6422 17.4595 11.2973 17.8043 11.2973 18.2297C11.2973 18.6551 11.6422 19 12.0676 19V17.4595ZM12.8378 14.1216C12.8378 13.1002 12.4321 12.1206 11.7098 11.3983L10.6205 12.4876C11.0538 12.921 11.2973 13.5088 11.2973 14.1216H12.8378ZM11.7098 11.3983C10.9875 10.676 10.0079 10.2703 8.98649 10.2703V11.8108C9.59936 11.8108 10.1871 12.0543 10.6205 12.4876L11.7098 11.3983ZM8.98649 10.2703C7.96505 10.2703 6.98544 10.676 6.26317 11.3983L7.3525 12.4876C7.78586 12.0543 8.37363 11.8108 8.98649 11.8108V10.2703ZM6.26317 11.3983C5.54091 12.1206 5.13514 13.1002 5.13514 14.1216H6.67568C6.67568 13.5088 6.91914 12.921 7.3525 12.4876L6.26317 11.3983ZM5.13514 14.1216V18.2297H6.67568V14.1216H5.13514ZM5.90541 17.4595H0.770275V19H5.90541V17.4595ZM1.54055 18.2297L1.54054 7.95946L0 7.95946L4.46874e-06 18.2297H1.54055ZM4.37115 3.78518L0.263044 7.37977L1.2775 8.53915L5.38561 4.94455L4.37115 3.78518ZM17.7099 7.37977L9.49371 0.190583L8.47926 1.34996L16.6955 8.53915L17.7099 7.37977ZM16.4324 7.95946L16.4324 18.2297H17.973L17.973 7.95946L16.4324 7.95946ZM17.2027 17.4595H12.0676V19H17.2027V17.4595Z" fill="#EBEBF5" fill-opacity="0.3"/>
</svg>
