<svg width="33" height="39" viewBox="0 0 33 39" fill="none" xmlns="http://www.w3.org/2000/svg">
<path d="M17.2351 26.0911C17.0778 26.1112 16.9338 26 16.9152 25.8425C16.0631 18.6203 17.9769 11.1312 22.1978 5.21099C22.2924 5.0783 22.4777 5.05059 22.608 5.14837V5.14837C22.7359 5.24426 22.7628 5.425 22.6701 5.55513C18.5334 11.3591 16.6476 18.6908 17.4849 25.7693C17.5035 25.9269 17.3925 26.0709 17.2351 26.0911V26.0911Z" fill="#456C0A"/>
<path d="M17.382 26.187C17.3775 26.3481 17.2436 26.475 17.0825 26.471V26.471C16.9208 26.4669 16.7932 26.3325 16.7977 26.1708C16.9844 19.4535 17.1405 12.5316 15.153 5.97877C14.9442 5.27107 14.6893 4.83973 14.3664 4.64818C14.2303 4.5674 14.1235 4.42166 14.1515 4.26583V4.26583C14.18 4.10698 14.3351 3.99928 14.4839 4.06174C15.1909 4.35848 15.5132 5.17931 15.7083 5.80344C17.7249 12.4438 17.5688 19.425 17.382 26.187Z" fill="#456C0A"/>
<path d="M18.5488 25.6456C18.3921 25.6697 18.245 25.5626 18.2236 25.4055C17.6941 21.5149 18.882 17.4191 21.4068 14.4094C21.6402 14.1293 21.911 13.8398 22.2339 13.6379C22.369 13.5534 22.5401 13.6208 22.6048 13.7664V13.7664C22.6696 13.9121 22.6032 14.0815 22.4725 14.1728C22.2562 14.324 22.0584 14.5333 21.8451 14.7893C19.4231 17.6672 18.2792 21.573 18.7926 25.3149C18.8143 25.4732 18.7067 25.6213 18.5488 25.6456V25.6456Z" fill="#456C0A"/>
<path d="M17.0093 26.7564C17.0094 26.9172 16.8787 27.0481 16.7179 27.0481V27.0481C16.556 27.0481 16.425 26.9155 16.4248 26.7535C16.4185 20.9173 15.3656 16.3066 13.2244 12.6853C12.8445 12.0278 12.3477 11.2973 11.661 10.7713C11.0683 10.3299 10.3776 10.1171 9.75807 10.1892C9.59631 10.208 9.43361 10.1186 9.38941 9.96187V9.96187C9.34486 9.80393 9.43733 9.63821 9.59967 9.61423C10.3802 9.49892 11.2577 9.74432 11.9971 10.2891C12.7715 10.8589 13.2975 11.6625 13.7066 12.3639C15.935 16.1162 17.0034 20.8162 17.0093 26.7564Z" fill="#456C0A"/>
<path d="M17.9159 26.617C17.7541 26.6211 17.6199 26.493 17.6168 26.3312C17.5444 22.5828 17.3941 18.0198 15.2048 14.4765C15.1213 14.3413 15.1574 14.163 15.2897 14.0748V14.0748C15.4237 13.9855 15.6052 14.0225 15.69 14.1595C17.9633 17.8301 18.1147 22.4969 18.2003 26.3193C18.2039 26.4801 18.0767 26.613 17.9159 26.617V26.617Z" fill="#456C0A"/>
<path d="M26.3955 27.5223C26.6422 25.1434 24.776 23.0738 22.3843 23.0738H12.0902C9.69711 23.0738 7.83051 25.1458 8.07944 27.526L8.90158 35.3868C9.11636 37.4404 10.8476 39 12.9124 39H21.5694C23.6356 39 25.3675 37.4383 25.5806 35.3832L26.3955 27.5223Z" fill="#7C5327"/>
<path d="M27.6241 24.2717C27.5785 24.8493 27.0965 25.2947 26.5171 25.2947H7.96114C7.38453 25.2947 6.90386 24.8534 6.85473 24.2789V24.2789C6.79929 23.6306 7.31052 23.0738 7.96114 23.0738H26.5171C27.1649 23.0738 27.6751 23.6259 27.6241 24.2717V24.2717Z" fill="#936134"/>
<path d="M26.9589 16.5134C26.3415 13.2011 23.4959 11.876 22.4507 11.4955C22.1967 11.4031 21.9434 11.3069 21.6938 11.203C20.6261 10.7585 19.3814 10.5677 18.4406 11.1949C17.8123 11.6187 17.447 12.3346 17.1256 13.0213C16.8041 13.708 16.5119 14.424 16.4973 15.1838C16.4877 15.6846 16.6241 16.2046 16.9107 16.6012C17.1472 16.9284 17.6001 16.7606 17.7955 16.4073V16.4073C18.1619 15.7447 18.7586 16.3873 18.5222 17.1065C18.504 17.1618 18.4865 17.2174 18.4698 17.2732C18.3967 17.5216 18.3383 17.7846 18.4114 18.033C18.4698 18.2375 18.6159 18.3982 18.762 18.5443C19.5514 19.3469 20.5066 19.9717 21.553 20.3975C21.7475 20.4767 21.9642 20.3799 22.0566 20.1914V20.1914C22.2475 19.8021 22.8246 20.1028 22.8321 20.5362C22.833 20.5931 22.8352 20.6499 22.8385 20.7068C22.8531 20.8675 22.8678 21.0282 22.9262 21.1744C23.0139 21.3643 23.1746 21.5104 23.3499 21.6273C24.4019 22.3579 25.79 22.2556 27.0612 22.2994C28.8671 22.3726 30.6628 22.8127 32.3036 23.5856C32.9406 23.8856 32.9433 23.8839 32.3773 23.4652C30.786 22.2878 27.5384 19.5643 26.9589 16.5134Z" fill="#548611"/>
<path d="M32.5989 19.8447C32.5112 19.4502 32.3359 19.085 32.1459 18.7343C31.6155 17.7089 30.9521 16.7501 30.1709 15.9038C30.0805 15.8059 30.1982 15.6413 30.3148 15.7059V15.7059C30.4072 15.7572 30.5162 15.6697 30.4777 15.5712C29.4564 12.9615 27.0054 10.9444 24.2413 10.479V10.479C22.7998 10.2347 23.19 11.6825 24.3738 12.5406C25.4579 13.3264 26.5899 14.5855 26.9589 16.528C27.4187 18.9481 29.5572 21.1623 31.2192 22.562C31.8473 23.091 32.7874 22.4182 32.745 21.5981V21.5981C32.7011 20.999 32.7304 20.4146 32.5989 19.8447Z" fill="#456C0A"/>
<path d="M4.16552 13.8688C4.13058 11.0503 6.21226 9.46656 7.05846 8.9399C7.28742 8.79739 7.51457 8.65386 7.7397 8.50536C8.54988 7.97094 9.53335 7.62358 10.4045 7.9951C11.0035 8.24349 11.4273 8.7841 11.8072 9.31011C12.1871 9.83611 12.5523 10.3767 12.6838 11.0196C12.7685 11.4244 12.7441 11.8715 12.5832 12.2479C12.4427 12.5764 12.0216 12.5139 11.79 12.2418V12.2418C11.363 11.74 10.976 12.3797 11.2993 12.9538C11.3282 13.0051 11.3562 13.0568 11.3834 13.109C11.4857 13.299 11.588 13.5181 11.5588 13.7373C11.5442 13.9126 11.4419 14.0734 11.3396 14.2195C10.8106 15.0262 10.1139 15.7133 9.30384 16.2373C9.16088 16.3298 8.9737 16.2865 8.87047 16.1511V16.1511C8.65377 15.8668 8.21521 16.2151 8.27864 16.5668C8.28683 16.6122 8.29412 16.6578 8.30048 16.7034C8.31509 16.8349 8.3297 16.981 8.30048 17.1125C8.25665 17.2878 8.13976 17.4339 8.02287 17.5654C7.26309 18.3544 6.07958 18.5005 5.02758 18.7489C3.2304 19.1873 1.53551 20.0493 0.132836 21.2767C0.147447 21.2621 4.19474 17.4047 4.16552 13.8688Z" fill="#456C0A"/>
<path d="M0.00124947 17.5947C0.0158606 17.2586 0.0889165 16.9079 0.191195 16.5865C0.461138 15.6476 0.85364 14.7369 1.36113 13.9C1.41952 13.8037 1.28689 13.6841 1.19997 13.7557V13.7557C1.13212 13.8116 1.03234 13.7553 1.04758 13.6688C1.46261 11.3118 3.17553 9.20745 5.40738 8.34578V8.34578C6.57408 7.90827 6.49035 9.18157 5.64446 10.0965C4.86748 10.9369 4.12991 12.1816 4.15082 13.8688C4.17686 15.9693 2.75923 18.1831 1.60393 19.6345C1.16588 20.1848 0.276054 19.7813 0.176584 19.085V19.085C0.103528 18.5882 -0.0133617 18.0914 0.00124947 17.5947Z" fill="#548611"/>
<path d="M12.5085 6.38787C12.2537 3.61993 14.1562 1.89849 14.9561 1.30358C15.1787 1.13803 15.3994 0.971162 15.6185 0.800973C16.3691 0.217936 17.3139 -0.189592 18.1922 0.0904538C18.8059 0.29501 19.2735 0.777179 19.6826 1.27396C20.0917 1.75613 20.5008 2.26752 20.6908 2.88119C20.8153 3.28343 20.8205 3.73589 20.6818 4.12336C20.5666 4.44493 20.1612 4.41787 19.9202 4.1759V4.1759C19.4711 3.72512 19.1313 4.38796 19.4841 4.91749C19.5119 4.95917 19.5391 5.00123 19.5657 5.04364C19.6826 5.23359 19.7995 5.42353 19.7849 5.6427C19.7849 5.81803 19.6972 5.97876 19.6095 6.13948C19.1464 6.97319 18.5154 7.71102 17.76 8.29868C17.6279 8.40145 17.4399 8.37307 17.3283 8.24832V8.24832C17.0951 7.98754 16.6827 8.37274 16.7743 8.71044C16.7849 8.74942 16.7948 8.78859 16.8042 8.82793C16.8334 8.95943 16.8626 9.09093 16.8334 9.22244C16.8042 9.39777 16.7019 9.55849 16.5996 9.68999C15.9129 10.5228 14.7586 10.7566 13.7358 11.0927C13.2519 11.2513 12.7781 11.4427 12.3189 11.6648C10.3378 12.6228 10.3435 12.6665 11.3752 10.7228C12.0791 9.39649 12.6424 7.8364 12.5085 6.38787Z" fill="#66990C"/>
<path d="M8.7095 10.3913C8.69488 10.0553 8.75333 9.71919 8.81177 9.38314C9.00084 8.426 9.32369 7.49753 9.76488 6.62091C9.8176 6.51616 9.67963 6.40908 9.59507 6.49034V6.49034C9.52898 6.55385 9.42093 6.50419 9.42952 6.41292C9.6502 4.0663 11.1679 1.86535 13.312 0.835604V0.835604C14.4274 0.302148 14.4437 1.57367 13.6806 2.5465C12.9823 3.43675 12.3552 4.723 12.5084 6.38785C12.6993 8.46208 11.4778 10.758 10.4544 12.2804C10.0662 12.8578 9.15713 12.5306 9.00172 11.8524V11.8524C8.88483 11.3556 8.72411 10.8881 8.7095 10.3913Z" fill="#548611"/>
<path d="M13.9696 17.8138C13.101 15.1734 14.573 13.0745 15.221 12.3175C15.4014 12.1067 15.5798 11.8953 15.7553 11.6805C16.3592 10.9417 17.1875 10.3314 18.1045 10.4205C18.7474 10.479 19.3026 10.8589 19.8286 11.2388C20.34 11.6187 20.8514 12.0278 21.1729 12.583C21.3827 12.9455 21.493 13.3827 21.4466 13.789C21.4075 14.1319 21.0013 14.1946 20.7092 14.0106V14.0106C20.1624 13.6662 19.9831 14.3841 20.4568 14.8237C20.4963 14.8603 20.5353 14.8976 20.5738 14.9354C20.7345 15.0815 20.8806 15.2568 20.9245 15.476C20.9537 15.6513 20.9245 15.8267 20.866 16.002C20.6018 16.9135 20.1584 17.7773 19.5467 18.5069C19.4371 18.6376 19.2472 18.6527 19.1079 18.5541V18.5541C18.8141 18.3461 18.5003 18.8054 18.6657 19.1252C18.6839 19.1602 18.7014 19.1955 18.7182 19.2311C18.7766 19.348 18.8351 19.4795 18.8351 19.611C18.8497 19.7863 18.7913 19.9616 18.7036 20.1223C18.2214 21.0867 17.1548 21.5688 16.2343 22.1241C14.981 22.8668 13.8843 23.8584 13.0103 25.0183C12.5659 25.608 12.5752 25.6155 12.8783 24.9422C13.5945 23.3511 14.7432 20.1973 13.9696 17.8138Z" fill="#93C91C"/>
<path d="M11.1496 22.5624C11.062 22.241 11.0327 21.8903 11.0327 21.5543C11.0091 20.5715 11.1197 19.5887 11.3492 18.6448C11.3762 18.5337 11.2196 18.4606 11.1593 18.5577V18.5577C11.1105 18.6364 10.989 18.6151 10.977 18.5233C10.6701 16.1766 11.6733 13.7098 13.5166 12.2323V12.2323C14.495 11.4741 14.7832 12.6909 14.2546 13.8101C13.7718 14.8324 13.447 16.2251 13.9696 17.8138C14.6205 19.7926 13.9362 22.3024 13.2733 24.0142C13.0214 24.6646 12.0606 24.5451 11.7487 23.9213V23.9213C11.5441 23.4683 11.2811 23.0446 11.1496 22.5624Z" fill="#71B70B"/>
<path d="M25.9652 6.31482C25.8055 3.88441 23.9438 2.63022 23.1358 2.19736C22.8947 2.06821 22.6529 1.93853 22.4126 1.80797C21.6729 1.40608 20.8048 1.18967 20.0769 1.56619C19.5655 1.82919 19.2295 2.32597 18.9226 2.82275C18.6304 3.30491 18.3382 3.81631 18.2651 4.38614C18.2182 4.75173 18.2676 5.14137 18.4325 5.45861C18.5787 5.74 18.947 5.65418 19.1339 5.39799V5.39799C19.4801 4.92336 19.8665 5.46253 19.6164 5.99416C19.5937 6.04224 19.5719 6.09069 19.5509 6.13948C19.4778 6.31482 19.4048 6.51937 19.434 6.70932C19.4632 6.87004 19.5509 7.00154 19.6532 7.11843C20.1647 7.78737 20.8293 8.33857 21.5625 8.75088C21.7017 8.82918 21.8757 8.77282 21.9621 8.63841V8.63841C22.1377 8.36496 22.5525 8.65279 22.515 8.97564C22.51 9.01892 22.5058 9.06223 22.5024 9.10555C22.4877 9.22244 22.4877 9.35394 22.5316 9.45622C22.5754 9.60233 22.6923 9.73383 22.8092 9.83611C23.5251 10.479 24.5771 10.5228 25.5269 10.6689V10.6689C27.5171 10.9917 27.8238 10.6015 26.8208 8.85246C26.3614 8.05143 26.0223 7.18312 25.9652 6.31482Z" fill="#93C91C"/>
<path d="M29.8811 9.3101C29.8518 9.00327 29.7496 8.71104 29.6473 8.43343C29.3394 7.6164 28.926 6.83775 28.4148 6.12859C28.3564 6.04757 28.4659 5.93745 28.5473 5.99534V5.99534C28.6117 6.04118 28.6952 5.98193 28.6758 5.90528C28.1562 3.8533 26.4927 2.1296 24.4749 1.53696V1.53696C23.416 1.21683 23.5835 2.33805 24.3946 3.09024C25.1345 3.77638 25.8676 4.82266 25.9653 6.31481C26.0868 8.16423 27.488 10.0188 28.605 11.2193C29.0223 11.6678 29.7809 11.2509 29.8226 10.6397V10.6397C29.8518 10.1868 29.9249 9.74844 29.8811 9.3101Z" fill="#71B70B"/>
</svg>
