<svg width="31" height="28" viewBox="0 0 31 28" fill="none" xmlns="http://www.w3.org/2000/svg">
<path d="M7.04545 16.8C7.41917 16.8 7.77758 16.9475 8.04183 17.2101C8.30609 17.4726 8.45455 17.8287 8.45455 18.2C8.45455 18.5713 8.30609 18.9274 8.04183 19.1899C7.77758 19.4525 7.41917 19.6 7.04545 19.6C6.12023 19.6 5.20407 19.4189 4.34928 19.0672C3.49448 18.7154 2.7178 18.1998 2.06357 17.5497C0.742287 16.237 0 14.4565 0 12.6C0 10.7435 0.742287 8.96301 2.06357 7.65025C3.38484 6.3375 5.17688 5.6 7.04545 5.6C8.45455 2.31 11.6955 0 15.5 0C20.3332 0 24.2927 3.724 24.6591 8.442L25.3636 8.4C26.8585 8.4 28.2921 8.99 29.3491 10.0402C30.4062 11.0904 31 12.5148 31 14C31 15.4852 30.4062 16.9096 29.3491 17.9598C28.2921 19.01 26.8585 19.6 25.3636 19.6H23.9545C23.5808 19.6 23.2224 19.4525 22.9582 19.1899C22.6939 18.9274 22.5455 18.5713 22.5455 18.2C22.5455 17.8287 22.6939 17.4726 22.9582 17.2101C23.2224 16.9475 23.5808 16.8 23.9545 16.8H25.3636C26.1111 16.8 26.8279 16.505 27.3564 15.9799C27.8849 15.4548 28.1818 14.7426 28.1818 14C28.1818 13.2574 27.8849 12.5452 27.3564 12.0201C26.8279 11.495 26.1111 11.2 25.3636 11.2H22.5455V9.8C22.5455 7.94348 21.8032 6.16301 20.4819 4.85025C19.1606 3.5375 17.3686 2.8 15.5 2.8C11.9773 2.8 9.08864 5.348 8.53909 8.666C8.07409 8.498 7.56682 8.4 7.04545 8.4C5.92431 8.4 4.84909 8.8425 4.05632 9.63015C3.26355 10.4178 2.81818 11.4861 2.81818 12.6C2.81818 13.7139 3.26355 14.7822 4.05632 15.5698C4.84909 16.3575 5.92431 16.8 7.04545 16.8V16.8ZM12.6818 22.4C13.4292 22.4 14.1461 22.695 14.6746 23.2201C15.2031 23.7452 15.5 24.4574 15.5 25.2C15.5 25.9426 15.2031 26.6548 14.6746 27.1799C14.1461 27.705 13.4292 28 12.6818 28C11.9344 28 11.2176 27.705 10.6891 27.1799C10.1606 26.6548 9.86364 25.9426 9.86364 25.2C9.86364 24.4574 10.1606 23.7452 10.6891 23.2201C11.2176 22.695 11.9344 22.4 12.6818 22.4ZM19.0227 19.6C19.5833 19.6 20.1209 19.8213 20.5173 20.2151C20.9137 20.6089 21.1364 21.143 21.1364 21.7C21.1364 22.257 20.9137 22.7911 20.5173 23.1849C20.1209 23.5787 19.5833 23.8 19.0227 23.8C18.4622 23.8 17.9245 23.5787 17.5282 23.1849C17.1318 22.7911 16.9091 22.257 16.9091 21.7C16.9091 21.143 17.1318 20.6089 17.5282 20.2151C17.9245 19.8213 18.4622 19.6 19.0227 19.6V19.6ZM13.3864 14C13.9469 14 14.4845 14.2212 14.8809 14.6151C15.2773 15.0089 15.5 15.543 15.5 16.1C15.5 16.657 15.2773 17.1911 14.8809 17.5849C14.4845 17.9788 13.9469 18.2 13.3864 18.2C12.8258 18.2 12.2882 17.9788 11.8918 17.5849C11.4954 17.1911 11.2727 16.657 11.2727 16.1C11.2727 15.543 11.4954 15.0089 11.8918 14.6151C12.2882 14.2212 12.8258 14 13.3864 14Z" fill="white"/>
</svg>
