<svg width="25" height="24" viewBox="0 0 25 24" fill="none" xmlns="http://www.w3.org/2000/svg">
<path d="M24.5801 10.5852L13.3634 0.337395C12.8711 -0.112481 12.1287 -0.112432 11.6365 0.337346L0.419825 10.5853C0.0254415 10.9456 -0.104832 11.5008 0.0878437 11.9996C0.280568 12.4985 0.749805 12.8208 1.28335 12.8208H3.07485V23.0883C3.07485 23.4954 3.40405 23.8255 3.81005 23.8255H9.95818C10.3642 23.8255 10.6934 23.4955 10.6934 23.0883V16.8542H14.3067V23.0884C14.3067 23.4955 14.6359 23.8255 15.042 23.8255H21.1898C21.5958 23.8255 21.925 23.4955 21.925 23.0884V12.8208H23.7168C24.2503 12.8208 24.7196 12.4984 24.9123 11.9996C25.1048 11.5007 24.9745 10.9456 24.5801 10.5852Z" fill="#D2D2D2"/>
</svg>
